<?xml version="1.0"?>
<svg width="134" height="134" xmlns="http://www.w3.org/2000/svg" xmlns:svg="http://www.w3.org/2000/svg">
 <!-- Created with SVG-edit - http://svg-edit.googlecode.com/ -->
 <g>
  <title>Layer 1</title>
  <path id="svg_1" d="m26.77499,22.800655l0,0c0,-3.555653 2.814892,-6.438152 6.287235,-6.438152l2.858006,0l0,0l13.717785,0l25.720787,0c1.667404,0 3.266579,0.678289 4.445877,1.885626c1.179077,1.207441 1.841339,2.84503 1.841339,4.552526l0,16.095486l0,0l0,9.657352l0,0c0,3.555653 -2.814873,6.438251 -6.287216,6.438251l-25.720787,0l-17.920647,16.370758l4.202862,-16.370758l-2.858006,0c-3.472343,0 -6.287235,-2.882599 -6.287235,-6.438251l0,0l0,-9.657352l0,0l0,-16.095486z" stroke-linecap="null" stroke-linejoin="null" stroke-dasharray="null" stroke-width="5" stroke="#00007f" fill="#007fff"/>
 </g>
</svg>