<?xml version="1.0" encoding="utf-8"?>
<!-- Generator: Adobe Illustrator 16.0.0, SVG Export Plug-In . SVG Version: 6.00 Build 0)  -->
<!DOCTYPE svg PUBLIC "-//W3C//DTD SVG 1.1//EN" "http://www.w3.org/Graphics/SVG/1.1/DTD/svg11.dtd">
<svg version="1.1" id="Layer_1" xmlns="http://www.w3.org/2000/svg" xmlns:xlink="http://www.w3.org/1999/xlink" x="0px" y="0px"
	 width="149px" height="134px" viewBox="0 0 149 134" enable-background="new 0 0 149 134" xml:space="preserve">
<path fill-rule="evenodd" clip-rule="evenodd" fill="#FFC94F" d="M293.658,331.694 M110.894,94.685
	c3.99-6.435,7.248-21.21,8.106-30.685c0.417-4.608,2.376-9.108,3.868-13.58c2.185-6.546,5.417-12.871,6.631-19.575
	c1.076-5.945-3.393-10.027-9.477-9.245c-4.102,0.527-8.205,2.479-11.871,4.562c-3.504,1.991-6.529,2.563-10.314,0.952
	c-15.146-6.442-30.41-6.441-45.561-0.012c-3.769,1.599-6.924,1.331-10.334-0.89c-2.756-1.795-5.76-3.465-8.891-4.383
	c-7.424-2.179-13.609,2.379-12.52,9.942c0.854,5.921,2.986,12.007,6.002,17.172c3.172,5.433,4.729,10.777,4.872,16.928
	c0.062,2.631,1.344,5.261,2.235,7.834c0.662,1.912,2.023,3.671,2.305,5.609c0.577,3.959-0.246,8.316,1.077,11.936
	c3.788,10.353,28.001,24.052,39.022,23.264C86.447,113.769,114.264,104.244,110.894,94.685"/>
<path fill-rule="evenodd" clip-rule="evenodd" fill="#FFFFFF" d="M52.143,63.404 M61.223,50.972
	c-3.47-5.055-9.599-3.236-14.854-2.594c-1.558,0.19-3.108,0.443-5.027,0.721c5.044,4.865,7.726,12.107,16.145,11.438
	c0.51-0.041,1.844,2.273,1.616,3.204 M52.601,84.456c-0.033,7.072,2.913,12.853,8.839,15.282c-6.64-7.969-8.891-15.871-3.116-24.565
	 M64.585,100.712c7.361,0,13.297,0,19.233,0c-1.319-1.024-2.826-1.547-4.328-2.083c-4.428-1.578-5.104-4.252-1.859-7.746
	c1.24-1.335,2.964-2.276,4.007-3.729c1.323-1.843,2.179-4.021,3.71-6.97c-6.131,0-10.869-0.061-15.605,0.038
	c-1.338,0.028-3.487,0.163-3.805,0.889c-0.473,1.079-0.07,3.052,0.711,4.064c1.609,2.086,3.797,3.713,5.598,5.666
	c3.22,3.494,2.494,6.362-1.891,7.889C68.859,99.252,67.359,99.761,64.585,100.712z"/>
<path fill-rule="evenodd" clip-rule="evenodd" fill="#E76000" d="M52.143,63.404 M58.324,75.173
	C52.549,83.867,54.8,91.77,61.44,99.738c-5.926-2.43-8.872-8.21-8.839-15.282 M59.102,63.74c0.228-0.931-1.105-3.245-1.616-3.204
	c-8.419,0.67-11.1-6.572-16.145-11.438c1.919-0.277,3.47-0.53,5.027-0.721c5.255-0.643,11.384-2.461,14.854,2.594
	c3.591,5.233,2.663,11.566,0.608,17.66"/>
<path fill-rule="evenodd" clip-rule="evenodd" fill="#E76000" d="M64.585,100.712c2.773-0.951,4.274-1.46,5.77-1.981
	c4.385-1.526,5.111-4.395,1.891-7.889c-1.8-1.953-3.989-3.58-5.598-5.666c-0.781-1.013-1.184-2.985-0.711-4.064
	c0.318-0.726,2.467-0.86,3.805-0.889c4.736-0.099,9.474-0.038,15.605-0.038c-1.531,2.948-2.387,5.127-3.71,6.97
	c-1.043,1.452-2.767,2.394-4.007,3.729c-3.245,3.494-2.568,6.168,1.859,7.746c1.502,0.536,3.009,1.059,4.328,2.083
	C77.883,100.712,71.947,100.712,64.585,100.712z"/>
<path fill-rule="evenodd" clip-rule="evenodd" fill="#E76000" d="M99.846,62.771 M99.387,83.822
	c0.033,7.072-2.912,12.854-8.838,15.283c6.64-7.969,8.891-15.871,3.115-24.566 M90.158,67.999
	c-2.056-6.094-2.984-12.427,0.607-17.66c3.47-5.055,9.599-3.236,14.854-2.594c1.559,0.19,3.108,0.443,5.027,0.721
	c-5.044,4.865-7.725,12.107-16.145,11.438c-0.51-0.041-1.844,2.273-1.615,3.204"/>
</svg>
