<?xml version="1.0" encoding="utf-8"?>
<!-- Generator: Adobe Illustrator 16.0.0, SVG Export Plug-In . SVG Version: 6.00 Build 0)  -->
<!DOCTYPE svg PUBLIC "-//W3C//DTD SVG 1.1//EN" "http://www.w3.org/Graphics/SVG/1.1/DTD/svg11.dtd">
<svg version="1.1" id="Layer_1" xmlns="http://www.w3.org/2000/svg" xmlns:xlink="http://www.w3.org/1999/xlink" x="0px" y="0px"
	 width="286px" height="176px" viewBox="0 0 286 176" enable-background="new 0 0 286 176" xml:space="preserve">
<g>
	<g>
		<path fill-rule="evenodd" clip-rule="evenodd" fill="none" d="M287,177c-95.3,0-190.7,0-285.9,0C1,118.3,1,59.6,1,1
			C96.4,1,191.7,1,287,1C287,59.7,287,118.4,287,177z M201.1,175.8c28.3-28.4,56.4-56.7,84-84.4c-29.3-29.6-58.8-59.3-88.7-89.5
			c-28.1,29-56.3,58.1-84,86.7c8.9,9,19.2,19.4,30.3,30.7c18.9-19.2,37.9-38.4,56.5-57.3c8.8,8.8,17.6,17.6,26.8,26.9
			c-18.4,18.4-37.2,37.2-55.7,55.7C180.6,155,190.7,165.3,201.1,175.8z M3.1,89.3c28.2,28.5,56.4,57,84.3,85.3
			C98.7,163,110,151.6,121.5,140c-17.5-17.5-35.4-35.4-53.3-53.4c16.5-16.5,33-33,49.1-49C106.5,26.7,96.3,16.3,86.1,5.9
			C58.2,33.9,30.4,61.8,3.1,89.3z"/>
		<path fill-rule="evenodd" clip-rule="evenodd" fill="#B32E29" d="M201.1,175.8c-10.3-10.5-20.5-20.8-30.8-31.3
			c18.5-18.5,37.2-37.2,55.7-55.7c-9.2-9.2-18-18-26.8-26.9c-18.6,18.9-37.6,38.1-56.5,57.3c-11.2-11.3-21.4-21.7-30.3-30.7
			c27.7-28.5,55.9-57.6,84-86.7c29.9,30.2,59.4,59.9,88.7,89.5C257.5,119.1,229.3,147.4,201.1,175.8z"/>
		<path fill-rule="evenodd" clip-rule="evenodd" fill="#B32E29" d="M3.1,89.3c27.4-27.5,55.2-55.4,83-83.3
			c10.2,10.4,20.4,20.7,31.1,31.7c-16.1,16-32.5,32.5-49.1,49c17.9,17.9,35.8,35.8,53.3,53.4C110,151.6,98.7,163,87.4,174.5
			C59.4,146.3,31.2,117.7,3.1,89.3z"/>
	</g>
</g>
</svg>
