<?xml version="1.0" encoding="utf-8"?>
<!-- Generator: Adobe Illustrator 16.0.0, SVG Export Plug-In . SVG Version: 6.00 Build 0)  -->
<!DOCTYPE svg PUBLIC "-//W3C//DTD SVG 1.1//EN" "http://www.w3.org/Graphics/SVG/1.1/DTD/svg11.dtd">
<svg version="1.1" id="Layer_1" xmlns="http://www.w3.org/2000/svg" xmlns:xlink="http://www.w3.org/1999/xlink" x="0px" y="0px"
	 width="120px" height="84.8px" viewBox="0 0 120 84.8" enable-background="new 0 0 120 84.8" xml:space="preserve">
<path fill-rule="evenodd" clip-rule="evenodd" fill="#2491EA" d="M121,15.2c0,18.8,0,37.5,0,56.3c-1.2,0.4-1.1,1.6-1.3,2.5
	c-1.8,5.5-5.5,9-11,10.5c-1,0.3-1.9,0.4-2.6,1.3c-30.3,0-60.5,0-90.8,0c-0.3-1-1.3-1.1-2.1-1.3c-5.5-1.6-9-5.1-10.8-10.5
	c-0.3-0.9-0.1-2.1-1.4-2.5C1,52.8,1,34,1,15.2c1.2-0.4,1.1-1.6,1.4-2.5C4.2,7.4,7.8,3.9,13.1,2.3C13.9,2,14.9,2,15.3,1
	c30.5,0,61,0,91.5,0c0.4,1.2,1.6,1.1,2.5,1.4c5.2,1.7,8.7,5.1,10.4,10.4C119.9,13.7,119.8,14.8,121,15.2z M58.1,76.6
	c1.7-5.5-0.2-8.1-5.7-8.3c-5.9-0.1-11.7,0.1-17.6-0.1c-6.5-0.2-12.1-4.9-13-11c0.9,0,1.7,0,2.6,0c10,0,20,0,30,0
	c2.8,0,4.5-0.9,4.5-4c0.1-10.9-9.1-21.5-20.2-22.4c-8.3-0.7-16.7,0.4-24.9-0.7c-1.7,5.5-0.1,8,5.6,8.3c6.4,0.3,12.8,0,19.1,0.4
	c6,0.3,10.7,4.9,11.4,10.8c-1.4,0-2.7,0-4.1,0c-9.4,0-18.7,0-28.1,0c-4.2,0-5.1,1-4.6,5.1c1.4,12.8,11,21.4,23.9,21.6
	C44,76.3,50.9,75.9,58.1,76.6z M62,76.3c5.4,1.5,7.1,0.6,7.9-4.5c0.1-0.9,0.2-1.7,0.2-2.6c0.5-8.4,6.6-14.1,15.3-14.1
	c8.5,0,14.7,5.9,15.1,14.3c0.1,1.5,0,3,0.4,4.4c0.8,2.9,3,3.3,5.6,3c2.9-0.3,1.8-2.5,1.9-4c0.2-8.9-2.6-16.4-10.3-21.7
	c1.4-1.2,2.5-2,3.4-3c3.4-3.3,5.7-7.3,6.2-12.1c0.3-2.8-1-4.5-4.1-4.6c-2.8-0.2-3.7,1.1-3.8,3.7c-0.4,6.1-6.4,11.6-12.8,12
	c-1.9,0.1-3.7,0.4-5.6,0.5c-4.2,0.2-7.4,3.1-11.3,4.8c0-8.9,0-17.4,0-25.9c0-4,0.2-8-0.3-12c-0.6-5-3-6-7.8-4.2
	C62,32.5,62,54.4,62,76.3z"/>
</svg>
