<?xml version="1.0" encoding="utf-8"?>
<!-- Generator: Adobe Illustrator 16.0.0, SVG Export Plug-In . SVG Version: 6.00 Build 0)  -->
<!DOCTYPE svg PUBLIC "-//W3C//DTD SVG 1.1//EN" "http://www.w3.org/Graphics/SVG/1.1/DTD/svg11.dtd">
<svg version="1.1" id="Layer_1" xmlns="http://www.w3.org/2000/svg" xmlns:xlink="http://www.w3.org/1999/xlink" x="0px" y="0px"
	 width="292px" height="271px" viewBox="0 0 292 271" enable-background="new 0 0 292 271" xml:space="preserve">
<path fill-rule="evenodd" clip-rule="evenodd" fill="#FF4059" stroke="#FF4059" stroke-width="6" d="M104.692,116.821
	c18.833,18.463,90.394,88.595,108.849,106.688c-1.325,1.022-0.829,2.125-0.032,3.428c3.026,4.946,5.929,9.963,8.904,14.937
	c0.351,0.585,0.766,1.213,1.317,1.597c8.553,5.963,17.127,11.892,25.599,17.759c5.761-5.688,11.436-11.298,17.249-17.043
	c-3.688-5.118-7.929-10.296-11.362-15.939c-4.452-7.326-10.601-12.462-18.32-16.087c-2.482-1.169-4.793-2.686-7.205-4.055
	c-0.563,0.419-1.055,0.789-1.418,1.064c-18.489-18.093-90.101-88.243-108.8-106.542c3.459-3.318,7.011-6.693,10.528-10.104
	c1.41-1.366,2.864-2.712,4.105-4.221c3.695-4.502,3.547-10.398-0.26-14.712c-3.657-4.152-9.658-5.099-14.662-2.162
	c-1.18,0.689-1.813,0.57-2.688-0.324c-2.309-2.357-4.737-4.603-7.018-6.987c-0.456-0.481-0.785-1.499-0.6-2.094
	c1.519-4.759,0.286-8.742-3.238-12.193c-13.549-13.271,0.087,0.599-13.461-12.671c-17.36-17.012-8.695-9.033-26.065-26.034
	c-5.817-5.696-12.251-5.698-18.08,0.002C35.828,23.062,23.634,35.008,11.453,46.967c-5.922,5.809-5.931,12.067-0.022,17.859
	c30.553,29.947,7.926,7.728,38.439,37.711c3.924,3.858,8.145,5.941,13.744,3.986c0.443-0.152,1.259,0.12,1.632,0.469
	c2.554,2.409,5.011,4.922,7.563,7.328c0.861,0.809,0.721,1.394,0.17,2.313c-3.028,5.071-2.101,10.898,2.224,14.535
	c4.448,3.741,10.628,3.921,15.159-0.016c4.188-3.632,8.029-7.657,11.986-11.543C103.193,118.777,103.88,117.794,104.692,116.821z"/>
<path fill="#9DB2F0" d="M216.633,5.435c4.048,0.007,8.095,0.016,12.142,0.023c1.484,0.405,2.967,0.81,4.448,1.215
	c7.417,1.757,10.105,7.525,6.316,14.22c-1.218,2.142-2.978,3.881-4.598,5.621c-8.517,8.563-17.301,16.99-25.68,25.553
	c-6.624,6.822-6.911,15.669-0.582,22.248c5.926,6.311,9.213,9.739,15.68,15.783c5.654,5.236,14.289,5.388,20.37,0.573
	c1.893-1.47,3.647-3.344,5.405-5.083c7.704-7.491,15.271-15.116,22.978-22.609c3.514-3.478,8.374-6.284,12.552-3.46
	c2.831,1.881,4.438,6.842,4.973,10.597c0.665,4.96,0.385,10.322-0.57,15.279c-6.945,35.776-36.265,58.772-73.226,58.035
	c-3.373-0.006-7.693,1.188-9.856,3.466c-46.628,45.889-47.343,46.392-93.568,92.683c-8.92,8.963-18.243,16.315-30.929,18.84
	c-4.047-0.008-8.093-0.015-12.142-0.022c-6.739-3.364-11.519-2.771-17.177-7.34c-19.801-16.256-19.75-43.333-0.557-62.329
	c47.305-46.823,48.696-48.264,96.135-94.954c3.515-3.478,4.734-6.692,4.475-11.652c-1.832-31.099,12.788-57.21,39.387-69.357
	C200.031,9.425,208.533,7.967,216.633,5.435z"/>
</svg>
