<?xml version="1.0" encoding="utf-8"?>
<!-- Generator: Adobe Illustrator 16.0.0, SVG Export Plug-In . SVG Version: 6.00 Build 0)  -->
<!DOCTYPE svg PUBLIC "-//W3C//DTD SVG 1.1//EN" "http://www.w3.org/Graphics/SVG/1.1/DTD/svg11.dtd">
<svg version="1.1" id="Layer_1" xmlns="http://www.w3.org/2000/svg" xmlns:xlink="http://www.w3.org/1999/xlink" x="0px" y="0px"
	 width="292px" height="271px" viewBox="0 0 292 271" enable-background="new 0 0 292 271" xml:space="preserve">
<path fill="none" stroke="#3D4766" stroke-width="16" d="M174.557,51.523c3,0,6,0,9,0c1.1,0.3,2.199,0.6,3.299,0.9
	c5.5,1.3,7.5,5.6,4.701,10.6c-0.9,1.6-2.201,2.9-3.4,4.2c-6.301,6.4-12.801,12.7-19,19.1c-4.9,5.1-5.1,11.7-0.4,16.6
	c4.4,4.7,9,9.3,13.801,13.8c4.199,3.9,10.6,4,15.1,0.4c1.4-1.1,2.699-2.5,4-3.8c5.699-5.6,11.299-11.3,17-16.9
	c2.6-2.6,6.199-4.7,9.299-2.6c2.102,1.4,3.301,5.1,3.701,7.9c0.5,3.7,0.299,7.7-0.4,11.4c-5.1,26.7-26.801,43.9-54.199,43.4
	c-2.5,0-5.701,0.899-7.301,2.6c-34.5,34.3-17.6,16.001-51.8,50.601c-6.6,6.7-13.5,12.2-22.9,14.1c-3,0-6,0-9,0
	c-5-2.5-10.7-4.1-14.9-7.5c-14.7-12.1-14.7-32.3-0.5-46.5c35-35,18.6-17.4,53.7-52.3c2.6-2.6,3.5-5,3.3-8.7
	c-1.4-23.2,9.4-42.7,29.1-51.8C162.256,54.523,168.557,53.423,174.557,51.523z"/>
</svg>
