<?xml version="1.0" encoding="utf-8"?>
<!-- Generator: Adobe Illustrator 16.0.0, SVG Export Plug-In . SVG Version: 6.00 Build 0)  -->
<!DOCTYPE svg PUBLIC "-//W3C//DTD SVG 1.1//EN" "http://www.w3.org/Graphics/SVG/1.1/DTD/svg11.dtd">
<svg version="1.1" id="Layer_1" xmlns="http://www.w3.org/2000/svg" xmlns:xlink="http://www.w3.org/1999/xlink" x="0px" y="0px"
	 width="110.253px" height="98.046px" viewBox="20.406 31.5 110.253 98.046" enable-background="new 20.406 31.5 110.253 98.046"
	 xml:space="preserve">
<path fill="#FFCC66" d="M111.895,108.686C115.884,102.25,119.143,87.475,120,78c0.417-4.607,2.376-9.107,3.868-13.58
	c2.185-6.546,5.417-12.871,6.631-19.575c1.076-5.945-3.394-10.027-9.478-9.245c-4.102,0.527-8.205,2.479-11.871,4.562
	c-3.504,1.991-6.528,2.563-10.313,0.952c-15.146-6.442-30.41-6.441-45.561-0.012c-3.769,1.599-6.924,1.331-10.334-0.89
	c-2.756-1.795-5.76-3.465-8.891-4.383c-7.424-2.179-13.609,2.379-12.52,9.942c0.854,5.92,2.986,12.006,6.002,17.172
	c3.172,5.433,4.729,10.776,4.872,16.928c0.062,2.631,1.344,5.261,2.235,7.834c0.662,1.912,2.023,3.671,2.305,5.609
	c0.577,3.959-0.246,8.315,1.077,11.936c3.788,10.354,28.001,24.052,39.022,23.264C87.447,127.77,115.264,118.244,111.895,108.686"/>
<path fill="#FFFFFF" d="M62.223,64.973c-3.47-5.056-9.599-3.236-14.854-2.595c-1.558,0.19-3.108,0.442-5.027,0.722
	c5.044,4.864,7.726,12.106,16.145,11.438c0.51-0.041,1.844,2.273,1.616,3.204 M53.601,98.456
	c-0.033,7.071,2.913,12.853,8.839,15.282c-6.64-7.969-8.891-15.871-3.116-24.565 M65.585,114.712c7.361,0,13.297,0,19.233,0
	c-1.319-1.024-2.826-1.547-4.328-2.083c-4.428-1.578-5.104-4.252-1.859-7.746c1.24-1.335,2.965-2.275,4.008-3.729
	c1.322-1.844,2.178-4.021,3.709-6.971c-6.131,0-10.869-0.061-15.604,0.039c-1.338,0.027-3.487,0.162-3.805,0.889
	c-0.473,1.078-0.07,3.052,0.711,4.063c1.609,2.086,3.797,3.714,5.598,5.666c3.22,3.494,2.494,6.362-1.891,7.89
	C69.859,113.252,68.359,113.761,65.585,114.712z"/>
<path fill="#424141" d="M59.324,89.173c-5.775,8.694-3.524,16.597,3.116,24.565c-5.926-2.43-8.872-8.211-8.839-15.282 M60.102,77.74
	c0.228-0.932-1.105-3.245-1.616-3.204c-8.419,0.67-11.1-6.572-16.145-11.438c1.919-0.277,3.47-0.529,5.027-0.721
	c5.255-0.643,11.384-2.461,14.854,2.594c3.591,5.233,2.663,11.566,0.608,17.66"/>
<path fill="#424141" d="M65.585,114.712c2.773-0.951,4.274-1.46,5.77-1.981c4.385-1.525,5.111-4.395,1.891-7.889
	c-1.8-1.953-3.989-3.58-5.598-5.666c-0.781-1.013-1.184-2.984-0.711-4.064c0.318-0.726,2.467-0.859,3.805-0.889
	c4.736-0.099,9.474-0.037,15.605-0.037c-1.531,2.947-2.388,5.127-3.711,6.969c-1.043,1.453-2.767,2.395-4.007,3.729
	c-3.245,3.494-2.567,6.168,1.858,7.746c1.503,0.536,3.01,1.06,4.328,2.083C78.883,114.712,72.947,114.712,65.585,114.712z"/>
<path fill="#424141" d="M100.387,97.822c0.033,7.072-2.912,12.854-8.838,15.283c6.641-7.97,8.891-15.871,3.115-24.566
	 M91.158,81.999c-2.057-6.094-2.984-12.427,0.607-17.66c3.469-5.055,9.598-3.235,14.854-2.594c1.559,0.19,3.107,0.442,5.027,0.721
	c-5.045,4.865-7.726,12.107-16.146,11.438c-0.51-0.041-1.844,2.272-1.614,3.203"/>
</svg>
