<?xml version="1.0" encoding="utf-8"?>
<!-- Generator: Adobe Illustrator 16.0.0, SVG Export Plug-In . SVG Version: 6.00 Build 0)  -->
<!DOCTYPE svg PUBLIC "-//W3C//DTD SVG 1.1//EN" "http://www.w3.org/Graphics/SVG/1.1/DTD/svg11.dtd">
<svg version="1.1" id="Layer_1" xmlns="http://www.w3.org/2000/svg" xmlns:xlink="http://www.w3.org/1999/xlink" x="0px" y="0px"
	 width="96.3px" height="89.6px" viewBox="0 0 96.3 89.6" enable-background="new 0 0 96.3 89.6" xml:space="preserve">
<rect x="9.5" y="30.5" fill="#F98F8F" stroke="#A53030" stroke-miterlimit="10" width="77" height="56"/>
<g>
	<path fill="#F98F8F" stroke="#A53030" stroke-miterlimit="10" d="M47.7,20.9c-13.8,0-27.6-0.2-41.4,0.1c-4.5,0.1-6.6-1.7-6.1-7.4
		c0.1-1.6,0-3.3,0-4.9C0.3,1.6,1.5,0,7.3,0c17.3,0,34.6,0,51.9,0c10.5,0,19.3-0.1,29.9,0c5.7,0.1,6.9,1.6,7.1,8.7c0,0.2,0,0.4,0,0.6
		c0.2,11.5,0.2,11.5-9.1,11.5C73.9,20.9,60.8,20.9,47.7,20.9z M47.9,12.9c6.8,0,13.6,0.2,20.4-0.1c1.6-0.1,3.1-1.9,4.6-3
		c-1.5-0.9-3-2.6-4.5-2.6C55,7,41.5,7,28.1,7.2c-1.6,0-3.1,1.9-4.6,3c1.5,0.9,3,2.6,4.5,2.6C34.6,13.1,41.2,12.9,47.9,12.9z"/>
	<path fill="#FFFFFF" stroke="#A53030" stroke-miterlimit="10" d="M48.1,27.5c7.7,0,21.7,0.2,42-0.1c4.5-0.1,6.2,1.4,6.2,6
		c-0.2,16.3,0,32.6-0.1,49c0,5.8-1.3,7.2-7,7.2c-27.3,0-54.6,0-81.9,0c-5.8,0-7.1-1.3-7.1-7.1C0.1,66,0.2,49.5,0,33
		c0-4.1,1.6-5.6,5.6-5.5C19.8,27.6,34,27.6,48.1,27.5z M60.5,38.2c-7,0-13.9-0.2-20.9,0.1c-1.5,0.1-2.8,1.9-4.3,2.9
		c1.5,1,2.9,2.7,4.4,2.7c13.6,0.2,27.2,0.2,40.8,0c1.4,0,2.8-1.9,4.2-2.9c-1.5-1-2.9-2.7-4.4-2.7C73.8,38,67.1,38.2,60.5,38.2z
		 M60,56.1c-6.8,0-13.6-0.2-20.4,0.1c-1.5,0.1-2.8,1.9-4.3,2.9c1.4,1,2.9,2.7,4.3,2.8c22.7,0.4,17.6,0.4,40.8,0
		c1.4,0,2.9-1.8,4.3-2.8c-1.4-1-2.9-2.7-4.3-2.8C73.6,56,66.9,56.1,60,56.1z M60,72.2c-6.8,0-13.6-0.2-20.4,0.1
		c-1.5,0.1-2.9,1.8-4.3,2.8c1.4,1,2.9,2.7,4.3,2.8c13.7,0.2,27.3,0.2,40.9,0c1.4,0,2.9-1.8,4.3-2.8c-1.4-1-2.9-2.7-4.3-2.8
		C73.6,72,66.8,72.2,60,72.2z"/>
</g>
<path fill="#F98F8F" stroke="#A53030" stroke-miterlimit="10" d="M22.3,58.5c0,1.7-1.4,3.2-3.2,3.2h-4.3c-1.7,0-3.2-1.4-3.2-3.2l0,0
	c0-1.8,1.4-3.2,3.2-3.2h4.3C20.9,55.3,22.3,56.7,22.3,58.5L22.3,58.5z"/>
<path fill="#F98F8F" stroke="#A53030" stroke-miterlimit="10" d="M22.3,41c0,1.7-1.4,3.2-3.2,3.2h-4.3c-1.7,0-3.2-1.4-3.2-3.2l0,0
	c0-1.7,1.4-3.2,3.2-3.2h4.3C20.9,37.8,22.3,39.3,22.3,41L22.3,41z"/>
<path fill="#F98F8F" stroke="#A53030" stroke-miterlimit="10" d="M22.3,75c0,1.7-1.4,3.2-3.2,3.2h-4.3c-1.7,0-3.2-1.4-3.2-3.2l0,0
	c0-1.8,1.4-3.2,3.2-3.2h4.3C20.9,71.8,22.3,73.3,22.3,75L22.3,75z"/>
</svg>
