<?xml version="1.0" encoding="utf-8"?>
<!-- Generator: Adobe Illustrator 16.0.0, SVG Export Plug-In . SVG Version: 6.00 Build 0)  -->
<!DOCTYPE svg PUBLIC "-//W3C//DTD SVG 1.1//EN" "http://www.w3.org/Graphics/SVG/1.1/DTD/svg11.dtd">
<svg version="1.1" id="Layer_1" xmlns="http://www.w3.org/2000/svg" xmlns:xlink="http://www.w3.org/1999/xlink" x="0px" y="0px"
	 width="256px" height="256px" viewBox="0 0 256 256" enable-background="new 0 0 256 256" xml:space="preserve">
<path fill="#DF6268" d="M242.49,155.514c0,10.174,1.922,28.367,0.59,37.456c-0.612,4.253-4.604,8.589-8.391,12.007
	c-9.41,8.422-21.893,13.092-34.984,16.428c-48.083,12.176-96.165,12.092-144.043-1.086c-11.356-3.166-21.893-7.752-30.589-14.674
	c-6.036-4.836-10.129-10.34-9.924-17.595c0.206-8.088-0.007-25.115-0.007-32.536c3.683,3.501,7.476,16.859,12.08,20.444
	c9.925,7.506,22.2,11.843,35.089,14.845c48.288,11.506,96.37,11.172,143.94-2.753C221.395,183.714,233.688,168.104,242.49,155.514z"
	/>
<path fill="#E7898E" d="M126.231,205.277c-25.589,0.209-53.206-3.539-78.896-15.928c-8.224-3.957-16.245-9.475-22.946-15.93
	c-12.185-11.868-11.88-26.548-0.306-39.145c9.038-9.89,20.613-15.614,32.797-20.196c19.699-7.288,40.108-10.931,61.023-11.451
	c25.486-0.625,50.771,0.625,75.242,8.433c12.689,4.06,24.875,9.161,35.332,17.698c8.328,6.769,14.725,14.679,14.014,26.755
	c-0.407,7.496-3.857,13.221-8.631,18.323c-7.922,8.64-17.975,14.056-28.635,18.322C180.757,202.051,155.169,205.486,126.231,205.277
	z"/>
<path fill="#5079D7" d="M224.367,107.564c0,9.445,1.775,24.553,0.652,32.995c-0.519,3.947-3.888,7.976-7.086,11.148
	c-7.945,7.82-18.486,12.156-29.545,15.253c-40.604,11.306-81.208,11.228-121.641-1.007c-9.59-2.941-18.488-7.2-25.832-13.627
	c-5.097-4.49-8.553-9.602-8.38-16.337c0.173-7.511-0.004-22.828-0.004-29.719c3.11,3.251,6.311,15.162,10.198,18.491
	c8.381,6.97,18.748,10.995,29.632,13.783c40.778,10.685,81.382,10.374,121.554-2.556
	C206.705,131.963,216.937,119.254,224.367,107.564z"/>
<path fill="#7397F0" d="M126.188,153.771c-21.609,0.194-44.931-3.287-66.625-14.789c-6.945-3.676-13.719-8.799-19.378-14.792
	c-10.289-11.02-10.032-24.65-0.258-36.348c7.632-9.183,17.407-14.499,27.696-18.753c16.634-6.767,33.87-10.15,51.533-10.633
	c21.521-0.581,42.873,0.581,63.539,7.83c10.718,3.77,21.008,8.507,29.839,16.433c7.032,6.284,12.434,13.63,11.833,24.845
	c-0.344,6.959-3.258,12.275-7.288,17.013c-6.688,8.022-15.179,13.051-24.183,17.014
	C172.232,150.775,150.625,153.967,126.188,153.771z"/>
<path fill="#F6F6D6" d="M50.354,61.41c6.292,13.317,17.167,19.279,28.658,23.925c18.74,7.588,38.165,9.292,57.931,8.208
	c16.279-0.929,32.078-4.336,46.92-12.234c7.798-4.181,14.843-9.601,19.562-18.66c0,5.188-0.479,10.375,0.068,15.486
	c1.71,14.169-4.992,22.608-14.638,29.19c-10.807,7.355-22.774,10.995-35.086,13.24c-22.775,4.181-45.348,3.33-67.712-3.639
	c-8.823-2.71-17.304-6.428-24.76-12.699c-7.182-6.039-11.627-13.549-11.08-24.234C50.628,73.798,50.354,67.604,50.354,61.41z"/>
<path fill="#F6F6D6" d="M125.043,96.547c-17.236,0.155-35.839-2.633-53.144-11.847c-5.54-2.942-10.943-7.046-15.458-11.847
	c-8.208-8.827-8.002-19.744-0.206-29.113c6.087-7.355,13.885-11.614,22.092-15.021c13.269-5.42,27.017-8.13,41.106-8.517
	c17.167-0.464,34.198,0.465,50.683,6.272c8.549,3.02,16.757,6.813,23.801,13.163c5.608,5.033,9.918,10.917,9.438,19.899
	c-0.273,5.575-2.6,9.833-5.813,13.627c-5.335,6.427-12.106,10.453-19.288,13.627C161.771,94.147,144.536,96.702,125.043,96.547z"/>
</svg>
