<?xml version="1.0" encoding="utf-8"?>
<!-- Generator: Adobe Illustrator 16.0.0, SVG Export Plug-In . SVG Version: 6.00 Build 0)  -->
<!DOCTYPE svg PUBLIC "-//W3C//DTD SVG 1.1//EN" "http://www.w3.org/Graphics/SVG/1.1/DTD/svg11.dtd">
<svg version="1.1" id="Layer_1" xmlns="http://www.w3.org/2000/svg" xmlns:xlink="http://www.w3.org/1999/xlink" x="0px" y="0px"
	 width="290px" height="244px" viewBox="0 0 290 244" enable-background="new 0 0 290 244" xml:space="preserve">
<g>
	<g>
		<path fill="#E8EBED" d="M224.3,66.1c-3.6,4.9-6.7,10.3-11,14.5c-16.3,15.9-33.1,31.3-49.7,46.9c-1.9,1.8-4.3,3.1-6.4,4.6
			c-4.1,0.9-7.3-0.4-9-4.3c-1.5-3.5-0.2-6.5,2.6-9c21.9-19.5,43.8-38.9,65.7-58.4c0.4-0.3,0.8-0.6,1.7-1.2
			C220.1,61.4,222.2,63.8,224.3,66.1z"/>
		<path fill="#E8EBED" d="M107.1,214.3c5.4-3.4,10.9-6.8,16.3-10.3c7.7,1.7,15.3,4.3,23.1,5c17.6,1.5,33.8-3.8,48.8-12.9
			c13.9-8.4,23.8-20.3,29.4-35.5c3-8.1,6-16.4,7-24.8c0.9-7.6-1.1-15.6-1.8-23.4c4.4-4.8,8.8-9.6,13.2-14.4
			c6.1,19.4,5.7,39.1,0.6,58.4c-4.7,17.8-14.7,32.9-29,44.9c-8.1,6.8-16.7,12.9-26.7,16.6c-9.5,3.5-19.2,6.6-29.6,6.3
			c-11.7-0.4-23.6,0.2-34.9-3.4C118,219,112.6,216.5,107.1,214.3z"/>
		<path fill="#E8EBED" d="M92,183.2c-4.6,2.7-9.3,5.4-13.9,8.1c-11.1-13.1-18.9-28-21-44.9c-2.5-19.4-2-38.6,6.6-57.1
			C78.8,56.8,103.9,38,139,33.4c14.4-1.9,29.2-1.4,43.1,3.7c7.7,2.8,14.9,6.8,22.1,10.8c2.2,1.2,3.9,3.7,5.1,5.9
			c2,3.6,1.6,7.2-1.8,9.9c-3.2,2.5-6.6,2.3-9.6-0.3c-10.2-8.6-22.4-12.4-35.2-14.6c-24.6-4-45.9,4.2-64.7,19.4
			c-13.7,11.1-20.8,26.6-25.1,43.4c-5.6,21.8,0,41.6,11,60.4C86.2,175.9,89.3,179.4,92,183.2z"/>
		<path fill="#58BB60" d="M92,183.2c9.5-6.7,19.3-13.1,28.6-20.1c11.6-8.9,22.8-18.3,34.2-27.6c1.1-0.9,1.6-2.3,2.4-3.5
			c2.2-1.5,4.5-2.8,6.4-4.6c16.7-15.5,33.4-31,49.7-46.9c4.3-4.2,7.3-9.6,11-14.5c1.9-1.9,4.4-3.5,5.7-5.7c4-7,8.3-13.9,10.9-21.4
			c3.5-10.2-2.5-17.8-13.4-19.3c-11-1.5-21.7-0.3-32.5,1.7c-1.2,0.2-2.5,0-3.8,0c-0.1-0.5-0.2-0.9-0.2-1.4c2.2-0.9,4.3-2.1,6.6-2.7
			c17.7-4.8,35.3-10.6,53.4-13.8c10-1.8,21,0,31.3,1.7c6.3,1.1,8.4,7.4,8.4,14c-0.2,15.2-8.2,27.1-16.4,38.6
			c-9,12.7-19.2,24.7-28.8,37c-0.8,1-1.4,2.2-2.1,3.3c-4.4,4.8-8.8,9.6-13.2,14.4c-1.3,0.9-2.7,1.7-3.9,2.8
			c-6.4,6.2-12.5,12.7-19,18.8c-10.3,9.8-20.6,19.7-31.4,29c-11.6,9.9-23.8,19.2-35.9,28.7c-5.4,4.2-11,8.2-16.5,12.3
			c-5.4,3.4-10.9,6.8-16.3,10.3c-10.8,5.6-21.4,12-32.6,16.6c-12.3,5.1-24.9,9.8-37.8,12.6c-8.5,1.8-18.6,2.8-25.6-5.1
			c-2.7-3.1-4.9-7.6-5.1-11.7c-1.1-16.1,3.6-31.1,10.7-45.2c7.9-15.8,16.2-31.4,24.4-47c0.5-1,1.2-1.8,3-2.3
			c-0.5,2.5-0.9,5.1-1.6,7.6c-3.4,13.5-7.1,26.9-10.3,40.5c-1.9,8.3,2.4,18,8.8,21.4c0.9,0.5,1.8,1,2.7,1c12.8,0.2,24-4.2,34.3-11.5
			C82.7,188.6,87.3,185.9,92,183.2z"/>
	</g>
</g>
</svg>
