<?xml version="1.0" encoding="utf-8"?>
<!-- Generator: Adobe Illustrator 16.0.0, SVG Export Plug-In . SVG Version: 6.00 Build 0)  -->
<!DOCTYPE svg PUBLIC "-//W3C//DTD SVG 1.1//EN" "http://www.w3.org/Graphics/SVG/1.1/DTD/svg11.dtd">
<svg version="1.1" id="Layer_1" xmlns="http://www.w3.org/2000/svg" xmlns:xlink="http://www.w3.org/1999/xlink" x="0px" y="0px"
	 width="214.9px" height="220px" viewBox="0 0 214.9 220" enable-background="new 0 0 214.9 220" xml:space="preserve">
<g>
	<g>
		<path fill-rule="evenodd" clip-rule="evenodd" fill="#FDFDFD" d="M166.9,0c17.3,0,34.7,0,52,0c0,75,0,150,0,225c-75,0-150,0-225,0
			c0-47,0-94,0-141c1.7,0,3.3,0,5,0c0,0.3,0,0.7,0,1c0,1,0,2,0,3c0,0.7,0,1.3,0,2c-0.7,0.9-2,1.9-1.9,2.7c0.4,3.8,1.2,7.5,1.9,11.3
			c0,2.3,0,4.7,0,7c-0.7,1.5-1.8,3.1-1.9,4.6c-0.3,3.8-0.1,7.6-0.1,11.4c-0.3,5.2-0.6,10.4-0.8,15.6c0,0.4,1.2,0.9,1.8,1.4
			c0.3,2.3,0.7,4.7,1,7c0.3,1.3,0.7,2.7,1,4c-1.5,4.1-1.5,7.7,2.9,10c0,1,0,2,0.1,3c-0.6,5.8,1.4,11.2,5,13c0,0.3,0,0.6,0,0.9
			c-0.3,3.1,0.9,5.2,4,6c0.7,1.3,1.3,2.7,2,4c3.8,4.4,7.4,8.9,11.3,13.2c6.1,6.5,14.4,9.4,22.4,12.5c3.4,1.3,7.5,1,11.3,1.4
			c1,0,2,0,3,0c1.3,0.3,2.7,0.6,4,0.9c1,0,2,0,3,0c1.3,0.7,2.6,1.9,3.9,1.9c22.1,0.1,44.2,0.1,66.3,0c1.3,0,2.6-1.2,3.9-1.9
			c1,0,2,0,3,0c1.3-0.3,2.7-0.6,4-1c1,0,2,0,3,0c5.6,2,11.7,0.1,16-4.9c0.3,0,0.6-0.1,1-0.1c10.5-1.6,18.2-7.3,23.9-16l0,0
			c0.7-1,1.4-2,2-3c0.3-0.3,0.7-0.7,1-1c0.7-0.7,1.3-1.4,2-2c0-0.3,0-0.6,0-1c0.7-0.7,1.3-1.4,2-2.1c1-2,2-4,3-5.9
			c4-0.8,3.9-3.9,4-7c0.3-0.3,0.6-0.6,0.9-1c0-1,0.1-2,0.1-3c1-4.7,2-9.3,3-14c0.7-2,1.8-3.9,1.9-5.9c0.5-8,0.7-16.1,1.1-24.1
			c0.1-0.1,0.4-0.2,0.4-0.3c-0.1-0.3-0.2-0.5-0.4-0.7c0-2.3,0-4.7,0-7c0-5.3,0-10.7,0-16c0-10.1,0.3-20.2-0.1-30.2
			c-0.2-5.1-1.6-10.1-2.8-15.1c-1.2-5.3-2.7-10.5-4.1-15.7c2.2-2.9,0-2.9-2-3l0,0c-0.5-1.4-1-2.9-1.7-4.3c-1-1.9-2.1-3.7-3.4-5.4
			c-1.6-2.2-3.4-4.2-5.2-6.2c-0.6-0.6-2.2-0.8-2.3-1.3c-1-5.3-4.8-5.1-8.7-4.7c-0.6-0.7-1.2-1.3-1.8-2c0.8-1.5,1.6-3,2.5-4.6
			c-4-0.8-7.6-3.1-11.4-0.6c-0.9-0.8-1.8-1.5-2.7-2.4C168.9,6.2,164.9,4.6,166.9,0z M201.3,24.5c-0.2,0-0.5,0-0.7-0.1
			c0.1,0.1,0.2,0.3,0.3,0.3C201,24.7,201.2,24.6,201.3,24.5z"/>
		<path fill-rule="evenodd" clip-rule="evenodd" fill="#FDFDFD" d="M-6.1,80c0-26.6,0-53.1,0-80c18.3,0,36.7,0,55,0
			c-2.5,2.6-4.6,6.5-7.7,7.6C37,9.2,32.1,8.8,27.4,9.3c0.3,0.4,0.5,0.7,0.8,1.1c-1.9,2-4,4-5.8,6.2c-0.6,0.7-0.8,1.8-0.9,2.7
			c-0.3,3.9-2.5,5.7-6.4,5.8c-6.1,0.1-6.2,0.3-3.7,5.9c-2.1,2-4.4,3.8-6.3,6.1C4,38.4,3,40.4,2.6,42.3C2,44.8,2.1,47.4,1.9,50
			c-1,7.4-2,14.7-3,22.1c0,1.3,0,2.6,0,3.9c-0.3,1.3-0.7,2.7-1,4C-3.4,80-4.8,80-6.1,80z"/>
		<path fill-rule="evenodd" clip-rule="evenodd" fill="#FCFCFC" d="M1.9,50c0.2-2.6,0.1-5.2,0.7-7.7C3,40.4,4,38.4,5.2,37
			c1.9-2.3,4.2-4.1,6.3-6.1c-2.5-5.6-2.4-5.7,3.7-5.9c3.9-0.1,6-1.8,6.4-5.8c0.1-0.9,0.3-2,0.9-2.7c1.8-2.1,3.8-4.1,5.8-6.2
			C28,10,27.7,9.7,27.4,9.3c4.6-0.5,9.6,0,13.8-1.6c3.1-1.2,5.2-5,7.7-7.6c39.3,0,78.7,0,118,0c-2.1,4.6,2,6.2,4.4,8.6
			c0.8,0.8,1.8,1.6,2.7,2.4c0,0-0.2,0.2-0.2,0.2c-1.3-0.2-2.6-0.2-3.8-0.5c-6.7-1.7-13.4-3.6-20.1-5.4c-8.7-0.6-17.4-1.6-26.2-1.8
			C112.4,3.3,101.2,3.7,90,3.8c-2.4-0.1-4.7-0.2-7.1-0.3c-0.3,0-0.6,0.1-0.9,0.1c-3.3,0.1-6.6,0.1-9.9,0.4
			c-12.3,1.2-24.5,2.8-35.2,9.8c-6.1,5-12.2,10-18.3,15c-1,1.1-2.2,2-2.9,3.3C12.5,38.2,7.1,43,5.8,50C4.5,50,3.2,50,1.9,50z"/>
		<path fill-rule="evenodd" clip-rule="evenodd" fill="#FCF8F9" d="M-6.1,80c1.3,0,2.7,0,4,0c0.3,0,0.7,0,1,0c0,1.3,0,2.7,0,4
			c-1.7,0-3.3,0-5,0C-6.1,82.7-6.1,81.3-6.1,80z"/>
		<path fill-rule="evenodd" clip-rule="evenodd" fill="#A73DB5" d="M182.9,16.2c0.6,0.7,1.2,1.3,1.8,2c0.5,0.8,0.9,1.7,1.4,2.4
			c5.5,6.5,11,13.1,16.5,19.6c0.5,1.6,1.1,3.2,1.6,4.7c-3-0.4-6.2-0.2-8.8-1.4c-7.2-3.2-14-0.3-21.1,0.6c-0.2-1-0.4-2.2-0.7-3.4
			c-2.4,0.5-4.5,1-6.7,1.5c-2.2-1.1-4.5-2.1-6.7-3.2c-0.4-0.2-0.8-0.5-1.1-0.7c-0.3-0.1-0.6-0.3-1-0.4c-1.4-0.5-2.7-1.1-4.1-1.6
			c-0.5-0.1-1.1-0.2-1.6-0.3c-2.1-0.5-4.3-1.1-6.4-1.6c-1-0.1-2-0.2-3-0.2c-2-0.2-3.9-0.5-5.9-0.7c-10.4-0.1-20.7-0.1-31.1-0.2
			c-1.7-0.1-3.3-0.2-5-0.4c1.1-1.3,2.1-3,3.5-3.7c2.7-1.3,5.7-2.1,8.5-3.1c3.6-0.7,7.1-1.3,10.7-2c8.7-1.7,17.4-3.4,26.1-5.1
			c0.6-0.1,1.3-0.2,1.9-0.5c7.9-3.7,16-5,24.6-2.9c0.5,0.1,1.1-0.4,1.7-0.6C179.5,15.4,181.2,15.8,182.9,16.2z"/>
		<path fill-rule="evenodd" clip-rule="evenodd" fill="#F3F3F3" d="M204.2,44.9c-0.5-1.6-1.1-3.2-1.6-4.7c1.1,0,2.3-0.1,3.4-0.1l0,0
			c0.7,1,1.3,2,2,3c1.4,5.2,2.9,10.4,4.1,15.7c1.1,5,2.6,10,2.8,15.1c0.4,10.1,0.1,20.2,0.1,30.2c0,5.3,0,10.7,0,16c0,2.3,0,4.7,0,7
			c0,0.3,0,0.7,0,1c-0.3,8-0.6,16.1-1.1,24.1c-0.1,2-1.3,4-1.9,5.9c-0.6,0-1.3,0-1.9,0c0.1-1,0.2-2,0.3-3c0.2-1,0.4-2.1,0.7-3.1
			c0.2-5,0.4-10,0.6-15c0.1-3.3,0.2-6.6,0.3-9.9c0-1,0-2,0-3.1c0-1.3,0-2.6,0-4c0-1,0-2,0-3c-0.1-11.3-0.2-22.6-0.2-33.9
			c-0.2-3.8-0.5-7.6-0.6-11.4C210.6,62.3,208.3,53.4,204.2,44.9z"/>
		<path fill-rule="evenodd" clip-rule="evenodd" fill="#DDD7DB" d="M152.9,219c-1,0-2,0-3,0c-1.3,0.3-2.7,0.6-4,1c-1,0-2,0-3,0
			c-24.7,0-49.3,0-74,0c-1,0-2,0-3,0c0-0.7,0-1.3,0-2c2.2,0,4.4,0,6.5,0c24.9-0.3,49.8-0.4,74.7-1.2c6-0.2,11.9-2.5,17.8-3.8
			c-0.8,1-1.4,2.4-2.4,2.9C159.4,217.1,156.1,218,152.9,219z"/>
		<path fill-rule="evenodd" clip-rule="evenodd" fill="#DDD7DB" d="M-0.1,155c-0.3-1.3-0.7-2.7-1-4c0-2.3,0-4.7,0-7
			c0-3.3,0-6.7,0-10c0.4-1.3,0.8-2.7,1.3-4c0.4,2,0.9,4,1.3,6.1c0.8,7.2,1.5,14.3,2.3,21.5c0.6,2.5,1.3,5.1,1.9,7.6
			c0.1,0.6,0.2,1.3,0.3,1.9c0.3,0.4,0.5,0.9,0.8,1.3c2.3,4.6,4.6,9.3,6.9,13.9c1.8,3.2,3.7,6.4,5.5,9.6c-0.4,0.4-0.9,0.8-1.3,1.2
			c-1.3-0.3-2.7-0.7-4-1c-0.7-1.3-1.3-2.7-2-4c-1.3-2-2.7-4-4-6c0-0.3,0-0.6,0-0.9c-1.7-4.3-3.4-8.7-5-13c0-1,0-2-0.1-3
			C1.9,161.7,0.9,158.3-0.1,155z"/>
		<path fill-rule="evenodd" clip-rule="evenodd" fill="#DDD7DB" d="M210,158c0.6,0,1.3,0,1.9,0c-1,4.7-2,9.3-3,14c0,1-0.1,2-0.1,3
			c-0.3,0.3-0.6,0.6-0.9,1c-1.3,2.3-2.7,4.7-4,7c-1,2-2,4-3,5.9c-0.7,0.7-1.3,1.4-2,2.1c0,0.3,0,0.6,0,1c-0.7,0.7-1.3,1.4-2,2
			c-0.3,0.3-0.7,0.7-1,1c-0.7,1-1.4,2-2,3c0,0,0,0,0,0c-1.5,0.8-3.1,1.6-4.6,2.5c-1.8,1.1-3.6,2.4-5.4,3.6c0,0-0.1-0.1-0.1-0.1
			c2.2-2.4,4.3-4.7,6.4-7.2c1.2-1.4,4.8-1.8,2.3-4.9c1.8-2.6,3.6-5.1,5.5-7.7c1.4-2.3,2.8-4.6,4.1-7l-0.1,0c0.3-0.4,0.6-0.7,0.9-1.1
			c1-2.6,2.1-5.1,3.1-7.7c0.7-2,1.4-4,2.1-5.9C208.7,160.9,209.4,159.5,210,158z"/>
		<path fill-rule="evenodd" clip-rule="evenodd" fill="#F3F3F3" d="M68.9,220c24.7,0,49.3,0,74,0c-1.3,0.7-2.6,1.9-3.9,1.9
			c-22.1,0.1-44.2,0.1-66.3,0C71.5,221.9,70.2,220.7,68.9,220z"/>
		<path fill-rule="evenodd" clip-rule="evenodd" fill="#F3F3F3" d="M13.9,192c1.3,0.3,2.7,0.7,4,1c0,0,0,0,0,0c0.7,1,1.3,2,2,3
			c1.3,1.3,2.7,2.7,4,4c0.7,0.7,1.3,1.3,2,2c1,0.4,2,0.7,2.9,1.1c0.7,1,1.4,1.9,2.1,2.9c1,0,1.9,0.1,2.9,0.1c1.2,1.4,2.1,3.3,3.6,4
			c7.1,3.2,14.3,6,21.5,8.9c-3.8-0.4-7.8-0.1-11.3-1.4c-8-3-16.3-5.9-22.4-12.5C21.3,200.9,17.7,196.4,13.9,192z"/>
		<path fill-rule="evenodd" clip-rule="evenodd" fill="#F3F3F3" d="M-1.1,80c-0.3,0-0.7,0-1,0c0.3-1.3,0.7-2.7,1-4
			c0-1.3,0-2.6,0-3.9c1-7.4,2-14.7,3-22.1c1.3,0,2.6,0,3.8,0c-0.5,2.3-1,4.6-1.4,6.9C3.2,61.9,2.2,67,1.1,72c0,5.4,0,10.7,0.1,16.1
			c0,7,0,14-0.1,20.9c-0.1,1-0.2,2-0.3,3c-0.3-4.1-0.6-8.2-0.9-12.2c-0.3-3.9-0.6-7.8-1-11.7c0-1,0-2,0-3C-1.1,83.3-1.1,81.7-1.1,80
			z"/>
		<path fill-rule="evenodd" clip-rule="evenodd" fill="#FCFCFC" d="M205.9,40c-1.1,0-2.3,0.1-3.4,0.1c-5.5-6.5-11-13-16.5-19.6
			c-0.6-0.7-1-1.6-1.4-2.4c3.9-0.3,7.7-0.5,8.7,4.7c0.1,0.6,1.7,0.7,2.3,1.3c1.8,2,3.6,4.1,5.2,6.2c1.3,1.7,2.4,3.5,3.4,5.4
			C205,37.1,205.4,38.6,205.9,40z"/>
		<path fill-rule="evenodd" clip-rule="evenodd" fill="#DDD7DB" d="M58.9,219c-7.2-2.9-14.4-5.7-21.5-8.9c-1.5-0.7-2.4-2.6-3.6-4
			c2.7,0.9,5.5,1.8,8.2,2.8c1,0.3,2,0.6,3,0.9c1.7,1.3,3.2,3,5.1,3.7c4.5,1.8,9.2,3,13.8,4.5c-0.7,0.4-1.3,0.7-2,1.1
			C60.9,219,59.9,219,58.9,219z"/>
		<path fill-rule="evenodd" clip-rule="evenodd" fill="#F3F3F3" d="M183.9,204c1.8-1.2,3.5-2.5,5.4-3.6c1.5-0.9,3-1.6,4.6-2.5
			c-5.7,8.8-13.4,14.5-23.9,16c0.9-0.7,1.8-1.4,2.8-2.1C176.4,209.2,181.9,209.1,183.9,204z"/>
		<path fill-rule="evenodd" clip-rule="evenodd" fill="#DDD7DB" d="M-1.1,88c0.3,3.9,0.7,7.8,1,11.7c0.3,4.1,0.6,8.2,0.9,12.2
			c0.1,1.3,0.2,2.7,0.3,4c-0.3,4-0.6,8-1,12.1c-0.4-1.5-1.1-3-1.2-4.6c-0.2-4.2-0.1-8.3-0.1-12.5c0-2.3,0-4.7,0-7c0-4.7,0-9.3,0-14
			C-1.1,89.3-1.1,88.7-1.1,88z"/>
		<path fill-rule="evenodd" clip-rule="evenodd" fill="#DDD7DB" d="M183.9,204c-2,5.1-7.6,5.2-11.2,7.9c-0.9,0.7-1.8,1.4-2.8,2.1
			c-0.3,0-0.6,0.1-1,0.1c-0.7-0.4-1.3-0.7-2-1.1c0.3-0.9,0.7-1.9,1-2.8c0.9-0.4,1.9-0.8,2.8-1.2c1.7-0.5,3.4-0.9,5.1-1.5
			C178.5,206.3,181.2,205.1,183.9,204L183.9,204z"/>
		<path fill-rule="evenodd" clip-rule="evenodd" fill="#FCFCFC" d="M182.9,16.2c-1.7-0.4-3.3-0.8-5-1.1c-1.4-1.3-2.7-2.6-4.1-3.8
			c0,0,0.2-0.2,0.2-0.2c3.8-2.5,7.4-0.2,11.4,0.6C184.5,13.1,183.7,14.6,182.9,16.2z"/>
		<path fill-rule="evenodd" clip-rule="evenodd" fill="#FCF8F9" d="M-1.1,134c0,3.3,0,6.7,0,10c-0.4,0-0.7,0-1.1,0
			c-0.6-0.5-1.8-0.9-1.8-1.4c0.2-5.2,0.5-10.4,0.8-15.6C-2.4,129.3-1.7,131.7-1.1,134z"/>
		<path fill-rule="evenodd" clip-rule="evenodd" fill="#F3F3F3" d="M-1.1,134c-0.7-2.3-1.3-4.7-2-7c0-3.8-0.2-7.6,0.1-11.4
			c0.1-1.6,1.2-3.1,1.9-4.6c0,4.2-0.1,8.3,0.1,12.5c0.1,1.5,0.8,3,1.2,4.6c0,0.6,0,1.3,0,1.9C-0.2,131.3-0.6,132.7-1.1,134z"/>
		<path fill-rule="evenodd" clip-rule="evenodd" fill="#F3F3F3" d="M166.9,213c0.7,0.4,1.3,0.7,2,1.1c-4.3,5-10.5,6.9-16,4.9
			c3.2-1,6.5-1.9,9.6-3.1c1-0.4,1.6-1.9,2.4-2.9C165.6,213,166.3,213,166.9,213z"/>
		<path fill-rule="evenodd" clip-rule="evenodd" fill="#F3F3F3" d="M2.9,168c1.7,4.3,3.4,8.7,5,13C4.3,179.2,2.2,173.8,2.9,168z"/>
		<path fill-rule="evenodd" clip-rule="evenodd" fill="#F3F3F3" d="M-0.1,155c1,3.3,1.9,6.7,2.9,10C-1.6,162.7-1.6,159.1-0.1,155z"
			/>
		<path fill-rule="evenodd" clip-rule="evenodd" fill="#F3F3F3" d="M-1.1,90c0,4.7,0,9.3,0,14c-0.7-3.7-1.5-7.5-1.9-11.3
			C-3.1,91.9-1.7,90.9-1.1,90z"/>
		<path fill-rule="evenodd" clip-rule="evenodd" fill="#F3F3F3" d="M203.9,183c1.3-2.3,2.7-4.7,4-7
			C207.8,179.1,207.9,182.2,203.9,183z"/>
		<path fill-rule="evenodd" clip-rule="evenodd" fill="#FCFCFC" d="M214.9,120c0-5.3,0-10.7,0-16C214.9,109.3,214.9,114.7,214.9,120
			z"/>
		<path fill-rule="evenodd" clip-rule="evenodd" fill="#F3F3F3" d="M8,181.9c1.3,2,2.7,4,4,6C8.9,187.1,7.6,185,8,181.9z"/>
		<path fill-rule="evenodd" clip-rule="evenodd" fill="#F3F3F3" d="M-2.1,144c0.4,0,0.7,0,1.1,0c0,2.3,0,4.7,0,7
			C-1.4,148.7-1.7,146.3-2.1,144z"/>
		<path fill-rule="evenodd" clip-rule="evenodd" fill="#F3F3F3" d="M61.9,219c0.7-0.4,1.3-0.7,2-1.1c0.7,0,1.3,0,2,0
			c0,0.7,0,1.3,0,2C64.6,219.7,63.2,219.3,61.9,219z"/>
		<path fill-rule="evenodd" clip-rule="evenodd" fill="#FCFCFC" d="M207.9,43c-0.7-1-1.3-2-2-3C207.9,40.1,210.1,40.1,207.9,43z"/>
		<path fill-rule="evenodd" clip-rule="evenodd" fill="#F3F3F3" d="M145.9,220c1.3-0.3,2.7-0.6,4-1
			C148.6,219.3,147.2,219.7,145.9,220z"/>
		<path fill-rule="evenodd" clip-rule="evenodd" fill="#F3F3F3" d="M208.8,175c0-1,0-2,0.1-3C208.9,173,208.9,174,208.8,175z"/>
		<path fill-rule="evenodd" clip-rule="evenodd" fill="#F3F3F3" d="M193.9,197.9c0.7-1,1.4-2,2-3C195.2,196,194.5,197,193.9,197.9z"
			/>
		<path fill-rule="evenodd" clip-rule="evenodd" fill="#F3F3F3" d="M198.9,191c0.7-0.7,1.3-1.4,2-2.1
			C200.2,189.6,199.6,190.3,198.9,191z"/>
		<path fill-rule="evenodd" clip-rule="evenodd" fill="#DDD7DB" d="M-1.1,80c0,1.7,0,3.3,0,5c0-0.3,0-0.7,0-1
			C-1.1,82.7-1.1,81.3-1.1,80z"/>
		<path fill-rule="evenodd" clip-rule="evenodd" fill="#F3F3F3" d="M196.9,194c0.7-0.7,1.3-1.4,2-2
			C198.2,192.6,197.6,193.3,196.9,194z"/>
		<path fill-rule="evenodd" clip-rule="evenodd" fill="#FCFCFC" d="M201.3,24.5c-0.1,0.1-0.3,0.2-0.4,0.2c-0.1,0-0.2-0.2-0.3-0.3
			C200.8,24.5,201,24.5,201.3,24.5z"/>
		<path fill-rule="evenodd" clip-rule="evenodd" fill="#FCFCFC" d="M214.9,128c0-0.3,0-0.7,0-1c0.1,0.2,0.3,0.5,0.4,0.7
			C215.3,127.8,215.1,127.9,214.9,128z"/>
		<path fill-rule="evenodd" clip-rule="evenodd" fill="#DDD7DB" d="M-1,72.1c0,1.3,0,2.6,0,3.9C-1.1,74.7-1.1,73.4-1,72.1z"/>
		<path fill-rule="evenodd" clip-rule="evenodd" fill="#8E46B7" d="M173.8,11.2c1.4,1.3,2.7,2.6,4.1,3.8c-0.6,0.2-1.2,0.7-1.7,0.6
			c-8.6-2-16.7-0.7-24.6,2.9c-0.6,0.3-1.3,0.3-1.9,0.5c-8.7,1.7-17.4,3.4-26.1,5.1c-3.6,0.7-7.1,1.3-10.7,2
			c-1.2-0.3-2.5-1.1-3.6-0.9c-8.4,1.2-16.9,2.5-25.2,4.2c-1.6,0.3-2.8,2.4-4.1,3.6l0.1,0.3c-3.4,0.3-6.8,0.5-10.2,0.8
			c-0.6,0.1-1.3,0.1-1.9,0.2c-3.7,0.9-7.4,1.9-11.1,2.8c-3.9,2.1-7.7,4.1-11.6,6.2c-2.4,0.4-5.2,0.2-7.2,1.4
			c-4.5,2.7-8.7,5.9-12.7,9.3c-6.7,5.7-16.6,7.5-20.5,16.7c-0.4,0.9-2.5,1-3.8,1.4c1.1-5,2.2-10.1,3.2-15.1c2-2.2,5-2.3,7.5-3.4
			c9.8-4.3,19.4-9,29.1-13.8c3.5-1.7,6.7-3.8,10-5.7c0.1,0.1,0.3,0.2,0.4,0.2c-0.1-0.1-0.3-0.2-0.4-0.2c-0.8-3.6,1.8-1.7,3-1.8
			c2.1,0,4.4,0.9,6.3,0.4c5.9-1.4,11.6-3.3,17.4-5.1c0.8-0.2,1.4-0.8,2-1.4c2.4-2,4.8-4.1,7.2-6.2c0.7,0,1.3,0,2,0
			c3.5-0.8,7.9,0.4,10-4c1,0,2,0,3,0c6.7-0.7,13.4-0.8,19.9-2.2c8.1-1.7,16-4.5,24-6.8c1.3-0.6,2.6-1.1,4-1.7
			c6.7,1.8,13.4,3.6,20.1,5.4C171.2,11,172.5,11,173.8,11.2z"/>
		<path fill-rule="evenodd" clip-rule="evenodd" fill="#6F58C5" d="M88.9,20c-0.7,0-1.3,0-2,0c-1-0.2-2.1-0.5-3.1-0.4
			c-9,0.3-17.1,6-26.7,4.1c-3.7-0.8-7.9,0.2-11.8,0.8c-8.9,1.4-17.8,3-26.7,4.5c6.1-5,12.2-10,18.3-15c0.5,0.6,1,1.7,1.3,1.7
			c9.5-1,19.1-1.9,28.6-3.5c7.1-1.2,14-3.3,20.9-5.2c0.9-0.3,1.5-2,2.2-3.1c11.2-0.1,22.5-0.5,33.7-0.3c8.7,0.2,17.5,1.2,26.2,1.8
			c-1.3,0.6-2.6,1.1-4,1.7c-5.1-0.2-10.3-1.2-15.3-0.4c-6.5,1.1-13.1,2.9-19,5.7c-3.2,1.5-8-1.3-9.7,3.7c-1,0-2,0-3,0
			C95.6,17.3,92.2,18.7,88.9,20z"/>
		<path fill-rule="evenodd" clip-rule="evenodd" fill="#7945BA" d="M18.6,28.9c8.9-1.5,17.8-3.1,26.7-4.5c3.9-0.6,8.1-1.6,11.8-0.8
			c9.5,1.9,17.6-3.8,26.7-4.1c1,0,2.1,0.3,3.1,0.4c-2.4,2.1-4.8,4.2-7.2,6.2c-0.6,0.5-1.3,1.1-2,1.4c-5.8,1.8-11.6,3.7-17.4,5.1
			c-1.9,0.5-4.2-0.5-6.3-0.4c-1.1,0-3.8-1.8-3,1.8l0,0c-3.3,1.9-6.6,4-10,5.7c-9.6,4.7-19.2,9.5-29.1,13.8c-2.5,1.1-5.4,1.2-7.5,3.4
			c0.5-2.3,1-4.6,1.4-6.9c1.4-7,6.7-11.8,9.9-17.8C16.4,30.9,17.6,30,18.6,28.9z M72.4,24.6c0,0.4,0.1,0.7,0.1,1.1
			c0.9-0.1,1.9-0.2,2.8-0.3c-0.1-0.4-0.1-0.8-0.2-1.2C74.3,24.3,73.3,24.5,72.4,24.6z"/>
		<path fill-rule="evenodd" clip-rule="evenodd" fill="#6165CF" d="M90,3.8c-0.7,1.1-1.2,2.8-2.2,3.1c-6.9,1.9-13.9,4-20.9,5.2
			c-9.5,1.6-19.1,2.4-28.6,3.5c-0.4,0-0.9-1.1-1.3-1.7c10.7-7,22.9-8.7,35.2-9.8c3.3-0.3,6.6-0.3,9.9-0.4c0,0,0.5,0.1,0.5,0.1
			l0.4-0.2C85.2,3.6,87.6,3.7,90,3.8z"/>
		<path fill-rule="evenodd" clip-rule="evenodd" fill="#CBC8C6" d="M82.8,3.5l-0.4,0.2c0,0-0.5-0.1-0.5-0.1
			C82.2,3.6,82.5,3.5,82.8,3.5z"/>
		<path fill-rule="evenodd" clip-rule="evenodd" fill="#FCF8F9" d="M67.9,34.1c0.6-0.1,1.3-0.1,1.9-0.2c1.8,0.3,3.5,0.9,5.3,0.8
			c1.7-0.1,3.3-1,4.9-1.6l-0.1-0.3c2.3,0,4.7,0,7,0c1,0,2,0,3,0c2.7,0.1,5.4,0.2,8,0.3c2.7,3,5.3,3,8,0c10.4,0.1,20.7,0.1,31.1,0.2
			c2,0.2,3.9,0.5,5.9,0.7c1,0.1,2,0.2,3,0.2c0.9,5.5,4.2,1.2,6.4,1.6c0.5,0.1,1.1,0.2,1.6,0.3c0.6,2.4,1.5,4,4.1,1.6
			c0.3,0.1,0.6,0.3,1,0.4c0.4,0.2,0.8,0.5,1.1,0.7c2.2,1.1,4.5,2.1,6.7,3.2c7.5,7.2,12.7,15.6,14.1,26.1c0.7,5.4,1.1,10.8,1.7,16.2
			c0,14.6,0.1,29.3-0.2,43.9c-0.1,8.2-1,16.5-1.5,24.7c-2.8,5.4-5.7,10.8-8.4,16.2c-0.6,1.1-0.7,2.5-1,3.7c-1.9,1.3-3.9,2.5-5.8,3.8
			c-1.1,0.5-2.3,1.1-3.4,1.6c-3.2,1.5-6.4,2.9-9.6,4.4l-0.1-0.1c-0.3-0.1-0.5,0-0.7,0.2c-2.4,1-4.7,2-7.1,3.1
			c-1.7,0.1-3.3,0.2-5,0.3c-3.7-0.3-7.4-0.6-11.1-0.9c-16.8-0.1-33.5,0.1-50.3-0.4c-14.3-0.4-28-3-38.6-13.8
			c-2.6-5-5.2-10.1-7.9-15.1c-0.3-2-0.6-3.9-0.8-5.9c0-0.4-0.1-0.7-0.1-1.1c-0.1-0.7-0.2-1.3-0.2-2c-0.1-1-0.2-2-0.2-3
			c-0.3-5.7-0.6-11.3-0.8-17c0-5,0-10,0-14.9c0-2.7,0-5.3,0-8c0-1.7,0-3.4,0-5c0.3-8,0.5-16.1,0.8-24.1c1-12.4,5.2-23.3,14.6-31.8
			C49.1,41.1,53,39,56.8,37c1.3,0.7,2.5,1.4,3.3,1.8C63.1,37,65.5,35.6,67.9,34.1z M159.1,163.2c0.5-0.5,0.9-1.1,1.4-1.6l0.4-0.2
			c1.5-2.4,3-4.8,4.6-7.2c0.9-5.3,1.8-10.6,2.7-15.8c0.1-0.7,0.2-1.5,0.2-2.2c0.1-2.1,0.2-4.2,0.3-6.3c0-16.7,0.3-33.4-0.2-50.1
			c-0.2-6-2.3-11.9-3.6-17.8c-4-7.7-10.5-12.1-18.9-13.9c-0.7-4.8-2.5-1.6-3.9-0.5c-0.7,0.1-1.4,0.1-2.1,0.2
			c-1.4-5.3-4.3-2.2-6.8-1.2c-3.1-0.1-6.1-0.2-9.2-0.3c-3,0-6-0.1-9-0.1c-8.3,0-16.7,0-25,0.1c-1.3,0-2.6,0-4,0.1
			c-1.7,0.2-3.3,0.4-5,0.6c-0.7-0.1-1.3-0.3-2-0.4c-3.2-3-6.2-3.3-9,0.5c-1.3,0.3-2.5,0.7-3.8,1c-8.9,2.3-16,6.8-19.1,16
			c-2.8,10.5-3.8,21.2-3,32c0.1,3.3,0.2,6.6,0.3,9.9l0,0c-0.1,0.7-0.2,1.3-0.3,2c0,4,0,8,0,12.1c0.1,5.3,0.1,10.6,0.2,16
			c0.5,4.4,1.1,8.9,1.6,13.3c0.4,1.6,0.9,3.2,1.3,4.7c4.3,11.9,14.1,16.1,25.5,16.9c11.1,0.8,22.2,0.3,33.3,0.3
			c10.6-0.3,21.3-0.7,31.9-1c2.7-0.1,5.4-0.2,8.1-0.4c3.7-1.6,7.3-3.2,11-4.7C157.7,164.4,158.4,163.8,159.1,163.2L159.1,163.2z
			 M140.5,41.7c-0.3-0.1-0.6-0.2-0.8-0.4c-0.1,0.3-0.4,0.6-0.3,0.8c0.1,0.2,0.5,0.3,0.8,0.4C140.3,42.3,140.4,42,140.5,41.7z
			 M146.7,39.3c0,0.1,0,0.3,0,0.4c0.5,0,1,0,1.5,0c0-0.1,0-0.3,0-0.4C147.7,39.3,147.2,39.3,146.7,39.3z"/>
		<path fill-rule="evenodd" clip-rule="evenodd" fill="#C039A5" d="M182.7,84.4c-0.6-5.4-1-10.8-1.7-16.2
			c-1.4-10.4-6.7-18.9-14.1-26.1c2.2-0.5,4.4-1,6.7-1.5c0.2,1.2,0.5,2.4,0.7,3.4c7.2-0.8,13.9-3.8,21.1-0.6c2.6,1.2,5.9,1,8.8,1.4
			c4.1,8.5,6.4,17.4,6.8,26.8c0.1,3.8,0.4,7.6,0.6,11.4c-0.2,4.3-0.4,8.6-0.6,12.9c-3.7-2.8-7-6.3-11.1-8.3c-4.5-2.3-7.3-9-14.1-6.1
			c-0.3,0.1-1.2-1-1.8-1.6C183.5,81.5,183.1,83,182.7,84.4z"/>
		<path fill-rule="evenodd" clip-rule="evenodd" fill="#9840A1" d="M86.9,32.9c-2.4,0-4.7,0-7,0c1.4-1.3,2.6-3.3,4.1-3.6
			c8.4-1.6,16.8-2.9,25.2-4.2c1.1-0.2,2.4,0.6,3.6,0.9c-2.9,1-5.8,1.8-8.5,3.1c-1.4,0.7-2.3,2.4-3.5,3.7c-1,0.1-2,0.2-3,0.3
			c-2.7-0.1-5.4-0.2-8-0.3C88.9,32.8,87.9,32.9,86.9,32.9z"/>
		<path fill-rule="evenodd" clip-rule="evenodd" fill="#FBF7F9" d="M97.9,33.1c1-0.1,2-0.2,3-0.3c1.7,0.1,3.3,0.2,5,0.4
			C103.2,36.1,100.6,36.1,97.9,33.1z"/>
		<path fill-rule="evenodd" clip-rule="evenodd" fill="#FBF7F9" d="M152.3,35.9c-2.2-0.4-5.5,3.9-6.4-1.6
			C148,34.8,150.2,35.3,152.3,35.9z"/>
		<path fill-rule="evenodd" clip-rule="evenodd" fill="#FBF7F9" d="M158,37.8c-2.5,2.4-3.5,0.7-4.1-1.6
			C155.3,36.7,156.6,37.3,158,37.8z"/>
		<path fill-rule="evenodd" clip-rule="evenodd" fill="#FBF7F9" d="M142.9,34c-2-0.2-3.9-0.5-5.9-0.7C139,33.5,140.9,33.8,142.9,34z
			"/>
		<path fill-rule="evenodd" clip-rule="evenodd" fill="#FBF7F9" d="M160.1,38.9c-0.4-0.2-0.8-0.5-1.1-0.7
			C159.3,38.5,159.7,38.7,160.1,38.9z"/>
		<path fill-rule="evenodd" clip-rule="evenodd" fill="#D53789" d="M183.9,80c0.6,0.6,1.5,1.7,1.8,1.6c6.8-2.9,9.6,3.8,14.1,6.1
			c4.1,2.1,7.4,5.5,11.1,8.3c0.3,7,0.6,14,0.9,21c0,1,0,2,0,3c0,1.3,0,2.6,0,4c0,1,0,2,0,3c-0.1,3.3-0.2,6.6-0.3,9.9
			c-0.2,5-0.4,10-0.6,15c-0.2,1-0.4,2.1-0.7,3.1c-0.1,1-0.2,2-0.3,3c-0.6,1.5-1.2,2.9-1.8,4.4c-0.7,2-1.4,4-2.1,5.9
			c-0.8-0.3-1.6-0.6-3.1-1.2c-0.9-1.9-2.5-4.8-3.8-7.8c-3.4-7.8-6.4-15.9-10.2-23.5c-2.9-5.8-5.5-11.1-5.2-18
			C184.3,105.2,183.9,92.6,183.9,80z"/>
		<path fill-rule="evenodd" clip-rule="evenodd" fill="#CF549A" d="M211.8,117c-0.3-7-0.6-14-0.9-21c0.2-4.3,0.4-8.6,0.6-12.9
			C211.6,94.4,211.7,105.7,211.8,117z"/>
		<path fill-rule="evenodd" clip-rule="evenodd" fill="#CF549A" d="M211.5,136.9c0.1-3.3,0.2-6.6,0.3-9.9
			C211.7,130.3,211.6,133.6,211.5,136.9z"/>
		<path fill-rule="evenodd" clip-rule="evenodd" fill="#CF549A" d="M211.8,124c0-1.3,0-2.6,0-4C211.8,121.3,211.8,122.7,211.8,124z"
			/>
		<path fill-rule="evenodd" clip-rule="evenodd" fill="#DDD7DB" d="M210.2,155c0.2-1,0.4-2.1,0.7-3.1
			C210.7,152.9,210.5,154,210.2,155z"/>
		<path fill-rule="evenodd" clip-rule="evenodd" fill="#CBC8C6" d="M65.9,218c-0.7,0-1.3,0-2,0c-4.6-1.5-9.3-2.8-13.8-4.5
			c-1.9-0.7-3.4-2.5-5.1-3.7c5.5,1.1,10.9,2.6,16.5,3.1c10.2,1,20.5,1.5,30.7,1.9c3.9,0.2,7.8-0.5,11.7-0.8c6,0,12,0,18-0.1
			c8-0.3,16-0.5,24-0.8c4-0.7,8-1.3,12-2c3.3-0.3,6.7-0.7,10-1c-0.3,0.9-0.7,1.9-1,2.8c-0.7,0-1.3,0-2,0c-5.9,1.3-11.8,3.6-17.8,3.8
			c-24.9,0.7-49.8,0.8-74.7,1.2C70.3,218,68.1,218,65.9,218z"/>
		<path fill-rule="evenodd" clip-rule="evenodd" fill="#F99A4D" d="M145.9,213.1c-8,0.3-16,0.5-24,0.8c0.1-0.7-0.1-1.6,0.2-1.9
			c4.6-4.3,1.9-6.5-2.2-8.6c-6-3.1-11.8-6.7-17.9-9.6c-4-2-8.3-3.7-12.7-4.6c-5.9-1.2-11.9-1.7-17.9-2c-8.9-0.6-18-1.5-26.8-0.8
			c-5.8,0.5-12.7,0.7-16.4,6.9c0.5,0.1,0.9,0.2,1.4,0.3c0.4,2.2,0.8,4.3,1.3,6.5c-1.6-1-3.3-1.9-4.9-3c-2.3-1.6-4.5-3.4-6.8-5.2
			c-1.8-3.2-3.7-6.4-5.5-9.6c0.4-4.1,2.5-6.4,6.8-7.1c6.5-1.1,13-2.7,19.5-4.1c10.6,10.9,24.3,13.5,38.6,13.8
			c16.8,0.4,33.5,0.3,50.3,0.4c-4.9,0.4-9.8,0.8-14.8,1.2c0,0.2,0,0.3,0,0.5c0.9,0.1,1.9,0.1,2.8,0.2c-0.3,3,0.9,4.1,4,4
			c1.8-0.1,3.9,0.5,5.5,1.3c3.3,1.7,6.3,3.7,9.5,5.6C141.4,201.6,145.2,206.3,145.9,213.1z"/>
		<path fill-rule="evenodd" clip-rule="evenodd" fill="#D2546A" d="M29.8,104c0,2.7,0,5.3,0,8c-1,1.1-2.6,2.1-2.8,3.3
			c-0.4,2.8-0.1,5.8-0.1,8.7c-2.5,0.7-5.1,1.1-7.4,2.3c-6.1,3.1-12,6.5-18,9.7c-0.4-2-0.9-4-1.3-6.1c0-0.6,0-1.3,0-1.9
			c0.3-4,0.6-8,1-12.1c3.6-1.5,7.1-3,10.7-4.5C17.8,109,23.8,106.5,29.8,104z"/>
		<path fill-rule="evenodd" clip-rule="evenodd" fill="#F88132" d="M40,171c-6.5,1.4-13,3-19.5,4.1c-4.3,0.7-6.3,3-6.8,7.1
			c-2.3-4.6-4.6-9.3-6.9-13.9c-0.3-0.5-0.5-0.9-0.8-1.3c-0.1-0.6-0.2-1.3-0.3-1.9c0.4,0,0.8-0.1,1.2-0.1c1.9-0.1,3.9,0.2,5.6-0.4
			c3.8-1.5,7.4-3.4,11-5.3c1.6-0.8,3.1-2,4.7-3c0.5,0.8,1.2,2,1.9,3.3c0.8-1.4,1.4-2.5,2-3.6C34.7,160.9,37.3,166,40,171z"/>
		<path fill-rule="evenodd" clip-rule="evenodd" fill="#EA7046" d="M6.9,165c-0.4,0-0.8,0.1-1.2,0.1c-0.6-2.5-1.3-5.1-1.9-7.6
			c0.5-4.3,1-8.5,1.4-12.2c7.5-4.6,14.5-9.1,22.6-9c1.2,3.1,2,5.4,2.9,7.7c0.1,1,0.2,2,0.2,3c-1.2,1.3-2.4,2.7-3.6,4
			c-2.1-2.1-2.1-2.2-9.8,0.7c-4.7,1.7-8.7,4.1-7.6,9.8c-0.7,0.1-1.8-0.1-1.9,0.2C7.4,162.7,7.2,163.9,6.9,165z"/>
		<path fill-rule="evenodd" clip-rule="evenodd" fill="#E95C4B" d="M30.6,144c-0.9-2.3-1.7-4.6-2.9-7.7c-8-0.1-15.1,4.4-22.6,9
			c-0.4,3.7-0.9,8-1.4,12.2c-0.8-7.2-1.5-14.3-2.3-21.5c6-3.3,11.9-6.7,18-9.7c2.3-1.1,4.9-1.5,7.4-2.3c1,1,1.9,2,2.9,3
			C30.1,132.6,30.4,138.3,30.6,144z"/>
		<path fill-rule="evenodd" clip-rule="evenodd" fill="#CBC8C6" d="M19.3,191.8c2.3,1.7,4.5,3.5,6.8,5.2c1.6,1.1,3.2,2,4.9,3
			c1.7,1,3.3,2.1,5,3.1c2,1.9,4.1,3.8,6.1,5.7c-2.7-0.9-5.5-1.8-8.2-2.8c-1,0-1.9-0.1-2.9-0.1c-0.7-1-1.4-1.9-2.1-2.9
			c-1-0.4-2-0.7-2.9-1.1c-0.7-0.7-1.3-1.3-2-2c-1.3-1.3-2.7-2.7-4-4c-0.7-1-1.3-2-2-3c0,0,0,0,0,0C18.4,192.6,18.8,192.2,19.3,191.8
			z"/>
		<path fill-rule="evenodd" clip-rule="evenodd" fill="#EA7046" d="M6,167c0.3,0.4,0.5,0.9,0.8,1.3C6.5,167.9,6.3,167.4,6,167z"/>
		<path fill-rule="evenodd" clip-rule="evenodd" fill="#D4337B" d="M183.9,80c0,12.6,0.4,25.2-0.2,37.8c-0.3,6.9,2.3,12.2,5.2,18
			c3.8,7.6,6.8,15.7,10.2,23.5c1.3,3,2.9,5.8,3.8,7.8c1.5,0.6,2.3,0.9,3.1,1.2c-1,2.6-2.1,5.1-3.1,7.7c-0.3,0.4-0.6,0.7-0.9,1.1
			c0,0,0.1,0,0.1,0c-0.7-0.1-1.5-0.1-2.2-0.2c-0.1-0.1-0.3-0.2-0.4-0.2c0.1,0.1,0.3,0.2,0.4,0.2c-1.1,1.2-2.1,2.3-3.5,3.8
			c0.3,0.7,1,2,1.6,3.3c-1.8,2.6-3.6,5.1-5.5,7.7c-2.2,1.8-4.4,3.5-6.6,5.3c0-1.7,0-3.4-0.1-5.1c1.3-3.4,3.5-6.8,3.8-10.3
			c0.4-5.7-0.4-11.6-0.9-17.3c-0.1-1.4-1.1-2.9-1.9-4.2c-0.9-1.5-2-3-3.1-4.3c-0.8-1-1.9-1.9-2.8-2.9c0.5-8.2,1.3-16.5,1.5-24.7
			c0.3-14.6,0.1-29.3,0.2-43.9C183.1,83,183.5,81.5,183.9,80z"/>
		<path fill-rule="evenodd" clip-rule="evenodd" fill="#CBC8C6" d="M186,197.1c2.2-1.8,4.4-3.5,6.6-5.3c2.5,3.2-1.1,3.5-2.3,4.9
			c-2.1,2.4-4.3,4.8-6.4,7.2c-2.7,1.2-5.3,2.4-8,3.5c-1.6,0.7-3.4,1-5.1,1.5c0.4-1,0.8-2,1.1-3c2-1,4-2,6-3
			C180.6,201,183.3,199.1,186,197.1z"/>
		<path fill-rule="evenodd" clip-rule="evenodd" fill="#C53786" d="M199.9,177c0.7,0.1,1.5,0.1,2.2,0.2c-1.4,2.3-2.7,4.6-4.1,7
			c-0.6-1.3-1.2-2.6-1.6-3.3C197.8,179.3,198.8,178.2,199.9,177L199.9,177z"/>
		<path fill-rule="evenodd" clip-rule="evenodd" fill="#C53786" d="M202,177.2c0.3-0.4,0.6-0.7,0.9-1.1
			C202.7,176.4,202.3,176.8,202,177.2z"/>
		<path fill-rule="evenodd" clip-rule="evenodd" fill="#DDD7DB" d="M28.9,203c0.7,1,1.4,1.9,2.1,2.9C30.3,205,29.6,204,28.9,203z"/>
		<path fill-rule="evenodd" clip-rule="evenodd" fill="#DDD7DB" d="M17.9,193c0.7,1,1.3,2,2,3C19.3,195,18.6,194,17.9,193z"/>
		<path fill-rule="evenodd" clip-rule="evenodd" fill="#DDD7DB" d="M23.9,200c0.7,0.7,1.3,1.3,2,2C25.3,201.3,24.6,200.6,23.9,200z"
			/>
		<path fill-rule="evenodd" clip-rule="evenodd" fill="#9840A1" d="M45.2,43.1c-9.5,8.5-13.6,19.4-14.6,31.8
			c-0.4-2.1-0.8-4.3-1.2-6.3C20.9,75.6,12.6,82.4,4.2,89c-0.5,0.4-2-0.6-3-1c0-5.4,0-10.7-0.1-16.1c1.3-0.5,3.5-0.6,3.8-1.4
			c3.9-9.2,13.8-11,20.5-16.7c4-3.4,8.2-6.6,12.7-9.3C40,43.4,42.8,43.6,45.2,43.1z"/>
		<path fill-rule="evenodd" clip-rule="evenodd" fill="#B53992" d="M1.1,88.1c1,0.3,2.6,1.3,3,1c8.4-6.6,16.7-13.4,25.2-20.4
			c0.4,2,0.8,4.1,1.2,6.3c-0.3,8-0.5,16.1-0.8,24.1c-2.3-0.3-4.9-1.6-6.7-0.8c-3.6,1.4-6.7,4.1-10.3,5.8c-3.8,1.9-7.8,3.4-11.7,5
			C1.1,102,1.1,95,1.1,88.1z"/>
		<path fill-rule="evenodd" clip-rule="evenodd" fill="#C53786" d="M1.1,109c3.9-1.7,7.9-3.1,11.7-5c3.5-1.8,6.6-4.4,10.3-5.8
			c1.9-0.7,4.5,0.5,6.7,0.8c0,1.7,0,3.4,0,5c-6,2.5-12,4.9-18,7.4c-3.6,1.5-7.2,3-10.7,4.5c-0.1-1.3-0.2-2.7-0.3-4
			C0.9,111,1,110,1.1,109z"/>
		<path fill-rule="evenodd" clip-rule="evenodd" fill="#FCC86A" d="M42,208.9c-2-1.9-4.1-3.8-6.1-5.7c1.6-0.5,3.2-1.1,4.8-1.6
			c4.2-3,8.9-5.1,14.6-5.6c18.1-1.4,35.2,2.6,51.9,9c1.4,0.5,2.6,1.4,3.9,2.1c-0.1,0.5-0.2,1-0.3,1.5c-4.2,0.3-8.5,0.6-12.7,0.9
			c0.1,0.4,0.1,0.8,0.2,1.2c1.9,1.1,3.8,2.2,5.7,3.3c-3.9,0.3-7.8,0.9-11.7,0.8c-10.3-0.4-20.5-1-30.7-1.9c-5.5-0.5-11-2-16.5-3.1
			C44,209.4,43,209.2,42,208.9z"/>
		<path fill-rule="evenodd" clip-rule="evenodd" fill="#E95C4B" d="M171.9,206c-0.4,1-0.8,2-1.1,3c-0.9,0.4-1.9,0.8-2.8,1.2
			c-3.3,0.3-6.7,0.7-10,1c-0.3-1.3-1.2-2.6-1-3.8c0.8-4.8-1.8-8.1-4.3-11.5c-2.5-3.4-5.2-6.7-7.8-10c2.4-1,4.7-2,7.1-3.1
			c0.2,0.2,0.3,0.4,0.5,0.5c0.1-0.2,0.1-0.5,0.2-0.7c0,0,0.1,0.1,0.1,0.1c1.7,0.1,3.4,0.1,5.1,0.2c2.4,6,4.7,12.2,7.3,18.1
			c0.6,1.3,2.7,2.8,3.8,2.6C171.4,203.1,172,203.8,171.9,206z"/>
		<path fill-rule="evenodd" clip-rule="evenodd" fill="#7945BA" d="M101.9,16c1.7-4.9,6.5-2.2,9.7-3.7c5.9-2.8,12.5-4.6,19-5.7
			c4.9-0.8,10.2,0.2,15.3,0.4c-8,2.3-15.9,5.1-24,6.8C115.4,15.2,108.6,15.3,101.9,16z"/>
		<path fill-rule="evenodd" clip-rule="evenodd" fill="#FBF7F9" d="M67.9,34.1c-2.4,1.4-4.9,2.9-7.8,4.7c-0.8-0.4-2-1.1-3.3-1.8
			C60.5,36,64.2,35.1,67.9,34.1z"/>
		<path fill-rule="evenodd" clip-rule="evenodd" fill="#7945BA" d="M88.9,20c3.3-1.3,6.7-2.7,10-4C96.8,20.4,92.5,19.2,88.9,20z"/>
		<path fill-rule="evenodd" clip-rule="evenodd" fill="#FBF7F9" d="M80,33.2c-1.6,0.6-3.2,1.5-4.9,1.6c-1.7,0.1-3.5-0.5-5.3-0.8
			C73.2,33.7,76.6,33.4,80,33.2z"/>
		<path fill-rule="evenodd" clip-rule="evenodd" fill="#7945BA" d="M50.9,34c0.1,0.1,0.3,0.2,0.4,0.2C51.2,34.2,51.1,34.1,50.9,34
			L50.9,34z"/>
		<path fill-rule="evenodd" clip-rule="evenodd" fill="#8E46B7" d="M72.4,24.6c0.9-0.1,1.8-0.2,2.8-0.4c0.1,0.4,0.1,0.8,0.2,1.2
			c-0.9,0.1-1.9,0.2-2.8,0.3C72.5,25.3,72.5,24.9,72.4,24.6z"/>
		<path fill-rule="evenodd" clip-rule="evenodd" fill="#B53992" d="M44,96c-0.8-10.8,0.2-21.5,3-32c6.3-3.7,12.3-7.7,18.9-10.8
			c4-1.9,8.8-2.3,13.2-3.1c2.4-0.4,2.8-1.2,1.7-3.2c1.7-0.2,3.3-0.4,5-0.6c1.3,0,2.6,0,4-0.1c8.3,0,16.7,0,25-0.1c3,0,6,0.1,9,0.1
			c3.1,0.1,6.1,0.2,9.2,0.3c2.3,0.4,4.6,0.8,6.8,1.2c0.7-0.1,1.4-0.1,2.1-0.2c1.3,0.2,2.6,0.3,3.9,0.5c8.4,1.8,14.8,6.3,18.9,13.9
			c-3.2,2.2-5.7,0.1-8.5-1c-1.4-0.6-3-0.4-4.5-0.6c-3.8-3.2-7.7-0.1-11.6-0.2c-2.9-0.1-5.8-0.1-8.6-0.4c-12.6-1.2-24.9-1.8-35.9,6.3
			c-1.2,0.9-3.4,1.3-4.7,0.7c-6.3-2.6-10.9,2.4-16.4,3.4c-3.9,0.7-7.3,3.6-11.2,4.7C55.9,77,49.1,85.2,48.9,93
			c-0.1,1.3-0.2,2.6-0.2,3.9c-0.2,0-0.4,0-0.6,0c-0.1-1.9-0.3-3.8-0.3-4.7C46.7,93.3,45.4,94.7,44,96z"/>
		<path fill-rule="evenodd" clip-rule="evenodd" fill="#F3703A" d="M137.8,170.2c-10.6,0.3-21.3,0.7-31.9,1c-0.6-0.8-1-1.8-1.8-2.3
			c-5.4-3.2-10.9-6.2-16.3-9.4c-3.3-1.9-6.1-5.3-9.6-6.1c-10.3-2.3-20.8-3-31,0.5c-0.4-1.6-0.9-3.2-1.3-4.7c0.9-4,1.8-8,2.7-11.9
			c0.4,0.2,1.3,1.1,2.2,1.1c6.8-0.1,13.6-0.4,20.4-0.5c3.2,0,7-1.4,7.9,3.8c0.1,0.7,1.8,1.3,2.8,1.8c1.2,0.7,2.4,1.2,3.5,1.9
			c3.8,2.6,7.2,6.3,12.5,4.4c5,0.7,9.9,1.3,14.9,2c1.7,0.3,3.9,0.2,5.1,1.1c6.6,5.4,11.2,13.3,19.9,16.1
			C137.8,169.3,137.8,169.9,137.8,170.2z"/>
		<path fill-rule="evenodd" clip-rule="evenodd" fill="#DE356D" d="M168.6,129.9c-0.1,2.1-0.2,4.2-0.3,6.3c-0.1,0.7-0.2,1.5-0.2,2.2
			c-0.9,5.3-1.8,10.6-2.7,15.8c-3.2-2.6-6.4-5.1-9.5-7.8c-5.6-4.8-11.3-9.6-16.9-14.5c3.8-8.6,7.5-17.2,6.6-26.9
			c2.4-0.3,5-1.3,7.2-0.8c3.1,0.8,6,2.7,9.8,4.5c0.3,2.7,0.7,6.7,1.1,10.8c0.4-0.1,0.8-0.2,1.2-0.3c1-2.5,2-4.9,3-7.4
			C168.1,118,168.4,123.9,168.6,129.9z"/>
		<path fill-rule="evenodd" clip-rule="evenodd" fill="#F88132" d="M47.2,154c10.3-3.5,20.8-2.8,31-0.5c3.5,0.8,6.3,4.1,9.6,6.1
			c5.4,3.2,10.9,6.2,16.3,9.4c0.8,0.5,1.2,1.5,1.8,2.3c-11.1,0-22.3,0.5-33.3-0.3C61.3,170.1,51.5,165.9,47.2,154z"/>
		<path fill-rule="evenodd" clip-rule="evenodd" fill="#EA4A56" d="M156.9,165.1c-3.7,1.6-7.3,3.2-11,4.7c0.4-4.8-0.3-8.9-5.9-10.5
			c-1-0.3-1.4-2.1-2.2-3.1c-1-1.3-1.9-2.8-3.1-3.7c-5.1-3.7-10.6-6.3-17.2-5.7c5.1-3,10.2-6,15.3-9c1.8,0.4,3.8,0.5,5.2,1.4
			c3.5,2.2,6.5,5.2,10.1,7.2c4.9,2.7,7.5,7.1,9.8,11.8c0.6,1.2,1.9,2.1,2.9,3.2c0,0-0.4,0.2-0.4,0.2c-0.5,0.5-0.9,1.1-1.4,1.6
			c0,0,0,0,0,0C158.4,163.8,157.7,164.4,156.9,165.1z"/>
		<path fill-rule="evenodd" clip-rule="evenodd" fill="#E95C4B" d="M117.5,146.8c6.6-0.6,12.1,2,17.2,5.7c1.3,0.9,2.2,2.4,3.1,3.7
			c0.8,1,1.3,2.8,2.2,3.1c5.6,1.6,6.3,5.6,5.9,10.5c-2.7,0.1-5.4,0.2-8.1,0.4c-0.1-0.3,0-0.9-0.2-0.9c-8.7-2.8-13.3-10.6-19.9-16.1
			c-1.2-1-3.3-0.9-5.1-1.1c-4.9-0.7-9.9-1.4-14.9-2c0.8-0.7,1.5-1.4,2.3-2.1C106,147.5,111.8,147.2,117.5,146.8z"/>
		<path fill-rule="evenodd" clip-rule="evenodd" fill="#DE356D" d="M181,153c1,0.9,2,1.8,2.8,2.9c1.1,1.4,2.2,2.8,3.1,4.3
			c0.8,1.3,1.7,2.7,1.9,4.2c0.5,5.8,1.3,11.6,0.9,17.3c-0.3,3.5-2.5,6.9-3.8,10.3c-4.1,0.7-4.9-2.4-5.9-5.2c-1.4-4-2.9-8-4-12
			c-0.8-2.8-2.4-2.7-4.4-1.9c0.3-1.2,0.5-2.6,1-3.7C175.4,163.8,178.2,158.4,181,153z"/>
		<path fill-rule="evenodd" clip-rule="evenodd" fill="#EA7046" d="M144.9,185.9c2.6,3.3,5.3,6.6,7.8,10c2.5,3.4,5.1,6.8,4.3,11.5
			c-0.2,1.2,0.6,2.5,1,3.8c-4,0.7-8,1.3-12,2c-0.7-6.8-4.6-11.5-10-15.2c-1.7-3-3.3-6-5-9c1.7-0.3,3.4-0.5,5.1-1
			c1.4-0.4,2.6-1.2,3.9-1.8C141.5,186.1,143.2,186,144.9,185.9z"/>
		<path fill-rule="evenodd" clip-rule="evenodd" fill="#EA7046" d="M100.2,147.8c-0.8,0.7-1.5,1.4-2.3,2.1c-5.4,2-8.7-1.8-12.5-4.4
			c-1.1-0.7-2.4-1.3-3.5-1.9c-1-0.6-2.7-1.1-2.8-1.8c-0.8-5.2-4.7-3.9-7.9-3.8c-6.8,0.1-13.6,0.4-20.4,0.5c-0.9,0-1.8-0.9-2.2-1.1
			c-0.9,3.9-1.8,7.9-2.7,11.9c-0.5-4.4-1.1-8.9-1.6-13.3c1.8-1.6,3.6-4.4,5.5-4.5c5.3-0.3,10.7,0.4,16,0.8c3.2,0.2,6-0.1,6.2-4.2
			C78.6,138.6,88,145.2,100.2,147.8z"/>
		<path fill-rule="evenodd" clip-rule="evenodd" fill="#E95C4B" d="M71.9,128.1c-0.3,4.1-3.1,4.4-6.2,4.2c-5.3-0.3-10.7-1.1-16-0.8
			c-1.9,0.1-3.6,2.9-5.5,4.5c-0.1-5.3-0.1-10.6-0.2-16c0.3,0,0.6,0,0.9,0c2.7,0,5.5,0.1,8.2,0c4.9-0.2,9.8-0.6,14.6-0.9l0.4-0.2
			C69.4,121.9,70.7,125,71.9,128.1z"/>
		<path fill-rule="evenodd" clip-rule="evenodd" fill="#C53786" d="M168.6,129.9c-0.2-6-0.5-11.9-0.7-17.9c-0.7-6.5-1.1-13-2.1-19.4
			c-0.8-4.9,1.1-10.9-4.8-14.2c-0.2-0.1-0.1-0.9-0.1-1.4c0.1-0.4,0.2-0.9,0.4-1.3c-0.1,0.4-0.2,0.9-0.4,1.3c-1.7,1-3.4,2-5,2.9
			c-1.8-3.1,5.7-5.4-0.4-8c0.9-4.6,0.7-8.7-3.8-11.5c1.5,0.2,3.2,0.1,4.5,0.6c2.8,1.2,5.3,3.2,8.5,1c1.3,5.9,3.4,11.8,3.6,17.8
			C168.9,96.5,168.6,113.2,168.6,129.9z"/>
		<path fill-rule="evenodd" clip-rule="evenodd" fill="#E14063" d="M171.6,172.9c2.1-0.8,3.7-0.9,4.4,1.9c1.1,4.1,2.6,8,4,12
			c1,2.8,1.8,5.9,5.9,5.2c0,1.7,0,3.4,0.1,5.1c-2.7,2-5.4,3.9-8.1,5.9c-3-7.2-5.8-14.5-8.9-21.7c-0.6-1.3-2.1-2.3-3.1-3.4
			c0-0.4-0.1-0.8-0.1-1.3C167.7,175.4,169.6,174.2,171.6,172.9z"/>
		<path fill-rule="evenodd" clip-rule="evenodd" fill="#F3703A" d="M6.9,165c0.3-1.1,0.5-2.3,1-3.3c0.1-0.3,1.2-0.1,1.9-0.2
			c-1.1-5.7,2.9-8,7.6-9.8c7.7-2.9,7.8-2.8,9.8-0.7c1.2-1.3,2.4-2.7,3.6-4c0.1,0.7,0.2,1.3,0.2,2c0,0.4,0.1,0.7,0.1,1.1
			c0.3,2,0.6,3.9,0.8,5.9c-0.6,1.1-1.2,2.2-2,3.6c-0.7-1.3-1.4-2.5-1.9-3.3c-1.6,1-3.1,2.2-4.7,3c-3.6,1.9-7.2,3.8-11,5.3
			C10.8,165.2,8.8,164.9,6.9,165z"/>
		<path fill-rule="evenodd" clip-rule="evenodd" fill="#D4337B" d="M44,96c1.3-1.3,2.6-2.7,3.7-3.8c0.1,0.9,0.2,2.8,0.3,4.7
			c0.2,0,0.4,0,0.6,0c0.1-1.3,0.2-2.6,0.2-3.9c2.8,0,5.7,0.3,8.5-0.1c3.5-0.5,7-1.4,10.6-2.2C69.4,90,71.2,89,73,88
			c-1.7,4.3-3.4,8.7-5.1,13c-9.4-3.2-18.5-1.2-23.5,4.9C44.2,102.6,44.1,99.3,44,96z"/>
		<path fill-rule="evenodd" clip-rule="evenodd" fill="#E14063" d="M160.8,161.4c-1-1-2.3-1.9-2.9-3.2c-2.3-4.7-4.9-9.1-9.8-11.8
			c-3.6-2-6.6-5-10.1-7.2c-1.4-0.9-3.5-1-5.2-1.4c2.1-1.9,4.1-3.8,6.2-5.8c5.6,4.8,11.2,9.7,16.9,14.5c3.1,2.6,6.3,5.2,9.5,7.8
			C163.9,156.6,162.4,159,160.8,161.4z"/>
		<path fill-rule="evenodd" clip-rule="evenodd" fill="#E14063" d="M44,108c0.1-0.7,0.2-1.3,0.3-2c2.9-0.3,5.8-0.8,8.7-0.8
			c4.6,0.1,9.5-3.6,13.9,0.8c0.4,4.3,0.8,8.6,1.2,12.8c0,0-0.4,0.2-0.4,0.2c-1.5-1.7-3-4.7-4.6-4.8c-5.1-0.3-10.2,0.4-15.3,0.7
			C47.2,112.3,50.1,107.6,44,108z"/>
		<path fill-rule="evenodd" clip-rule="evenodd" fill="#9840A1" d="M80.9,46.9c1.1,2,0.7,2.8-1.7,3.2c-4.5,0.8-9.2,1.2-13.2,3.1
			c-6.6,3-12.6,7.1-18.9,10.8c3.1-9.2,10.2-13.7,19.1-16c1.3-0.3,2.5-0.7,3.8-1c3-0.2,6-0.3,9-0.5C79.6,46.7,80.2,46.8,80.9,46.9z"
			/>
		<path fill-rule="evenodd" clip-rule="evenodd" fill="#DE356D" d="M67,106c-4.4-4.4-9.3-0.7-13.9-0.8c-2.9-0.1-5.8,0.5-8.7,0.8
			c0,0,0,0,0,0c4.9-6.2,14.1-8.1,23.5-4.9C67.6,102.7,67.3,104.3,67,106z"/>
		<path fill-rule="evenodd" clip-rule="evenodd" fill="#F3703A" d="M139.9,186.2c-1.3,0.6-2.5,1.4-3.9,1.8c-1.6,0.5-3.4,0.7-5.1,1
			c-4.7-0.7-9.4-1.3-14-2c-0.9-0.1-1.9-0.1-2.8-0.2c0-0.2,0-0.3,0-0.5c4.9-0.4,9.8-0.8,14.8-1.2
			C132.5,185.5,136.2,185.8,139.9,186.2z"/>
		<path fill-rule="evenodd" clip-rule="evenodd" fill="#EA4A56" d="M29.8,127c-1-1-1.9-2-2.9-3c0-2.9-0.3-5.8,0.1-8.7
			c0.2-1.2,1.8-2.2,2.8-3.3C29.8,117,29.8,122,29.8,127z"/>
		<path fill-rule="evenodd" clip-rule="evenodd" fill="#D2546A" d="M44,108c6.1-0.3,3.2,4.4,3.9,7c-1,1.7-2,3.3-3,5
			c-0.3,0-0.6,0-0.9,0C44,116,44,112,44,108z"/>
		<path fill-rule="evenodd" clip-rule="evenodd" fill="#D2546A" d="M157.9,182.9c-1.7-0.1-3.4-0.1-5.1-0.2c3.2-1.5,6.4-2.9,9.6-4.4
			c0.2,0.3,0.4,0.5,0.6,0.7C162.4,181.9,160.3,182.6,157.9,182.9z"/>
		<path fill-rule="evenodd" clip-rule="evenodd" fill="#FBF7F9" d="M139.9,47.8c-2.3-0.4-4.6-0.8-6.8-1.2
			C135.6,45.5,138.5,42.5,139.9,47.8z"/>
		<path fill-rule="evenodd" clip-rule="evenodd" fill="#FBF7F9" d="M78.9,46.6c-3,0.2-6,0.3-9,0.5C72.7,43.3,75.7,43.6,78.9,46.6z"
			/>
		<path fill-rule="evenodd" clip-rule="evenodd" fill="#FBF7F9" d="M123.9,46.3c-3,0-6-0.1-9-0.1C117.9,46.3,120.9,46.3,123.9,46.3z
			"/>
		<path fill-rule="evenodd" clip-rule="evenodd" fill="#FBF7F9" d="M145.9,48.1c-1.3-0.2-2.6-0.3-3.9-0.5
			C143.5,46.5,145.2,43.2,145.9,48.1z"/>
		<path fill-rule="evenodd" clip-rule="evenodd" fill="#FBF7F9" d="M89.9,46.3c-1.3,0-2.6,0-4,0.1C87.3,46.3,88.6,46.3,89.9,46.3z"
			/>
		<path fill-rule="evenodd" clip-rule="evenodd" fill="#D2546A" d="M165.8,176.7c0,0.4,0.1,0.8,0.1,1.3c-1,0.3-2,0.7-3,1
			c-0.2-0.2-0.4-0.4-0.6-0.7C163.5,177.8,164.6,177.2,165.8,176.7z"/>
		<path fill-rule="evenodd" clip-rule="evenodd" fill="#FBF7F9" d="M140.5,41.7c-0.1,0.3-0.2,0.6-0.4,0.8c-0.3-0.1-0.7-0.2-0.8-0.4
			c-0.1-0.2,0.2-0.5,0.3-0.8C139.9,41.5,140.2,41.6,140.5,41.7z"/>
		<path fill-rule="evenodd" clip-rule="evenodd" fill="#FBF7F9" d="M146.7,39.3c0.5,0,1,0,1.5,0c0,0.1,0,0.3,0,0.4c-0.5,0-1,0-1.5,0
			C146.7,39.6,146.7,39.4,146.7,39.3z"/>
		<path fill-rule="evenodd" clip-rule="evenodd" fill="#E14063" d="M156.9,165.1c0.7-0.6,1.5-1.3,2.2-1.9
			C158.4,163.8,157.7,164.4,156.9,165.1z"/>
		<path fill-rule="evenodd" clip-rule="evenodd" fill="#A73DB5" d="M86.9,32.9c1,0,2,0,3,0C88.9,32.8,87.9,32.9,86.9,32.9z"/>
		<path fill-rule="evenodd" clip-rule="evenodd" fill="#C53786" d="M168.1,138.4c0.1-0.7,0.2-1.5,0.2-2.2
			C168.2,136.9,168.1,137.7,168.1,138.4z"/>
		<path fill-rule="evenodd" clip-rule="evenodd" fill="#E14063" d="M159.1,163.2c0.5-0.5,0.9-1.1,1.4-1.6
			C160,162.1,159.6,162.7,159.1,163.2z"/>
		<path fill-rule="evenodd" clip-rule="evenodd" fill="#D2546A" d="M152.6,182.6c-0.1,0.2-0.1,0.5-0.2,0.7c-0.2-0.2-0.3-0.4-0.5-0.5
			C152.2,182.6,152.4,182.5,152.6,182.6z"/>
		<path fill-rule="evenodd" clip-rule="evenodd" fill="#EA7046" d="M31.2,150c0-0.4-0.1-0.7-0.1-1.1C31.2,149.3,31.2,149.7,31.2,150
			z"/>
		<path fill-rule="evenodd" clip-rule="evenodd" fill="#FBB558" d="M103.9,214c-1.9-1.1-3.8-2.2-5.7-3.3c-0.1-0.4-0.1-0.8-0.2-1.2
			c4.2-0.3,8.5-0.6,12.7-0.9c0.1-0.5,0.2-1,0.3-1.5c-1.3-0.7-2.5-1.6-3.9-2.1c-16.7-6.4-33.8-10.5-51.9-9
			c-5.7,0.4-10.3,2.6-14.6,5.6c-1.6,0.5-3.2,1.1-4.8,1.6c-1.7-1-3.3-2.1-5-3.1c-0.4-2.2-0.8-4.4-1.3-6.5c-0.5-0.1-0.9-0.2-1.4-0.3
			c3.7-6.2,10.6-6.4,16.4-6.9c8.9-0.7,17.9,0.3,26.8,0.8c6,0.4,12.1,0.9,17.9,2c4.4,0.9,8.6,2.6,12.7,4.6c6.1,2.9,11.9,6.5,17.9,9.6
			c4.1,2.1,6.8,4.3,2.2,8.6c-0.4,0.3-0.2,1.3-0.2,1.9C115.9,214,109.9,214,103.9,214z"/>
		<path fill-rule="evenodd" clip-rule="evenodd" fill="#F88132" d="M116.9,187c4.7,0.7,9.4,1.3,14,2c1.7,3,3.3,6,5,9
			c-3.2-1.9-6.2-4-9.5-5.6c-1.7-0.8-3.7-1.3-5.5-1.3C117.8,191.2,116.6,190,116.9,187z"/>
		<path fill-rule="evenodd" clip-rule="evenodd" fill="#C53786" d="M199.9,177c-0.1-0.1-0.3-0.2-0.4-0.2
			C199.6,176.8,199.8,176.9,199.9,177L199.9,177z"/>
		<path fill-rule="evenodd" clip-rule="evenodd" fill="#EA4A56" d="M162.9,179c1-0.3,2-0.7,3-1c1.1,1.1,2.5,2.1,3.1,3.4
			c3.1,7.2,6,14.4,8.9,21.7c-2,1-4,2-6,3c0.1-2.2-0.5-2.8-2.9-2.3c-1.1,0.2-3.2-1.4-3.8-2.6c-2.7-5.9-4.9-12-7.3-18.1
			C160.3,182.6,162.4,181.9,162.9,179z"/>
		<path fill-rule="evenodd" clip-rule="evenodd" fill="#C53786" d="M73,88c-1.8,1-3.5,1.9-4.9,2.7c-3.6,0.8-7.1,1.8-10.6,2.2
			c-2.8,0.4-5.6,0.1-8.5,0.1c0.2-7.8,7-16,14.5-18.2c3.9-1.1,7.3-4,11.2-4.7c5.5-1,10.1-6.1,16.4-3.4c1.3,0.5,3.5,0.1,4.7-0.7
			c11-8.1,23.4-7.5,35.9-6.3c2.9,0.3,5.7,0.3,8.6,0.4c-2.6,5.2-3.2,10.5,0,15.7c-0.8,1.5-1.6,3-2.8,5.2c-1-1.3-2-2.2-2.7-3.2
			c-1.7-2.8-3.9-3.8-6.8-1.8c-4.4-1.8-8.7-4.5-13.3-5c-7.1-0.8-14.9-1.7-21.3,0.5C85.1,74.4,78.1,80.4,73,88z"/>
		<path fill-rule="evenodd" clip-rule="evenodd" fill="#FBF7F9" d="M140.2,75.8c-3.3-5.2-2.7-10.5,0-15.7c3.9,0.1,7.8-3,11.6,0.2
			c4.5,2.8,4.7,7,3.8,11.5C152.4,78.6,145.2,79.9,140.2,75.8z"/>
		<path fill-rule="evenodd" clip-rule="evenodd" fill="#FBF7F9" d="M73,88c5.1-7.6,12.2-13.6,20.4-16.5c6.4-2.2,14.2-1.3,21.3-0.5
			c4.6,0.5,8.9,3.3,13.3,5c1.5,1,3.1,1.8,4.4,3.1c7.3,7.2,12.3,15.6,13.3,26c0.9,9.7-2.8,18.3-6.6,26.9c-2.1,1.9-4.1,3.8-6.2,5.8
			c-5.1,3-10.2,6-15.3,9c-5.8,0.3-11.6,0.7-17.3,1c-12.2-2.7-21.6-9.2-28.3-19.8c-1.2-3.1-2.5-6.2-3.7-9.2
			c-0.4-4.3-0.8-8.6-1.2-12.8c0.3-1.7,0.6-3.3,0.8-5C69.5,96.7,71.2,92.3,73,88z M81.1,110c0.1,1.4,0.2,2.8,0.4,4.2
			c5,22.1,31,25.1,41.5,13.7c2.8-2.3,6.1-4.3,4.9-8.8c5.4-6.3,5.5-15.7,0.3-21.1c-0.2-0.7-0.3-1.3-0.5-2c-0.2-0.4-0.4-0.9-0.6-1.3
			c-6-8.9-14.6-13.4-28.6-9.6c-8.5,2.3-14.1,8.7-15.7,17.8C82.2,105.3,81.6,107.6,81.1,110z"/>
		<path fill-rule="evenodd" clip-rule="evenodd" fill="#D4337B" d="M145.6,105.1c-1-10.4-6.1-18.8-13.3-26c-1.2-1.2-2.9-2.1-4.4-3.1
			c3-2,5.1-1,6.8,1.8c0.7,1.1,1.6,2,2.7,3.2c1.2-2.2,2-3.7,2.8-5.2c5,4.1,12.1,2.8,15.3-3.9c6.1,2.6-1.4,4.9,0.4,8
			c1.5-0.9,3.2-1.9,5-2.9l0,0c0,0.5-0.1,1.3,0.1,1.4c5.9,3.3,4,9.2,4.8,14.2c1,6.4,1.4,12.9,2.1,19.4c-1,2.5-2,4.9-3,7.4
			c-0.4,0.1-0.8,0.2-1.2,0.3c-0.4-4.1-0.8-8.1-1.1-10.8c-3.8-1.8-6.7-3.7-9.8-4.5C150.6,103.8,148,104.8,145.6,105.1z"/>
		<path fill-rule="evenodd" clip-rule="evenodd" fill="#EA4A56" d="M45,120c1-1.7,2-3.3,3-5c5.1-0.3,10.2-1.1,15.3-0.7
			c1.6,0.1,3.1,3.1,4.6,4.8c-4.9,0.3-9.8,0.7-14.6,0.9C50.4,120.1,47.7,120,45,120z"/>
		<path fill-rule="evenodd" clip-rule="evenodd" fill="#D4337B" d="M160.9,77c0.1-0.4,0.2-0.9,0.4-1.3C161.2,76.1,161,76.6,160.9,77
			L160.9,77z"/>
		<path fill-rule="evenodd" clip-rule="evenodd" fill="#D4337B" d="M82.7,102.9c1.6-9.1,7.3-15.6,15.7-17.8
			c14-3.8,22.6,0.7,28.6,9.6c0.2,0.4,0.4,0.9,0.6,1.3c0.2,0.7,0.3,1.3,0.5,2c-0.4,0.5-0.9,1-1.1,1.5c-2.9,7.3-5.7,8.9-13.5,7.6
			c-5.7-0.9-11.3-2.2-16.9-3C92,103.4,87.3,103.3,82.7,102.9z"/>
		<path fill-rule="evenodd" clip-rule="evenodd" fill="#EA4A56" d="M122.9,127.8c-10.5,11.5-36.5,8.4-41.5-13.7
			c4.3,0.5,8.7,0.7,13,1.6c5.6,1.2,11.4,2.4,16.6,4.6C115.2,122.2,121.2,121.8,122.9,127.8z"/>
		<path fill-rule="evenodd" clip-rule="evenodd" fill="#DE356D" d="M82.7,102.9c4.6,0.4,9.2,0.5,13.8,1.1c5.7,0.8,11.3,2.1,16.9,3
			c7.8,1.3,10.6-0.3,13.5-7.6c0.2-0.6,0.8-1,1.1-1.5c5.2,5.4,5.1,14.8-0.3,21.1c-2,0.5-4.5,1.9-6,1.2c-8.7-3.8-17.4-7.3-26.9-9.2
			c-4.7-1-9.1-2.3-13.8-1C81.6,107.6,82.2,105.3,82.7,102.9z"/>
		<path fill-rule="evenodd" clip-rule="evenodd" fill="#E14063" d="M81.1,110c4.8-1.2,9.1,0.1,13.8,1c9.5,1.9,18.2,5.4,26.9,9.2
			c1.5,0.7,4-0.8,6-1.2c1.2,4.5-2.1,6.5-4.9,8.8c-1.7-6.1-7.7-5.6-11.9-7.5c-5.2-2.3-11-3.4-16.6-4.6c-4.2-0.9-8.6-1.1-13-1.6
			C81.3,112.8,81.2,111.4,81.1,110z"/>
		<path fill-rule="evenodd" clip-rule="evenodd" fill="#DE356D" d="M127.7,95.9c-0.2-0.4-0.4-0.9-0.6-1.3
			C127.2,95.1,127.4,95.5,127.7,95.9z"/>
	</g>
</g>
</svg>
