<?xml version="1.0" encoding="utf-8"?>
<!-- Generator: Adobe Illustrator 16.0.0, SVG Export Plug-In . SVG Version: 6.00 Build 0)  -->
<!DOCTYPE svg PUBLIC "-//W3C//DTD SVG 1.1//EN" "http://www.w3.org/Graphics/SVG/1.1/DTD/svg11.dtd">
<svg version="1.1" id="Layer_1" xmlns="http://www.w3.org/2000/svg" xmlns:xlink="http://www.w3.org/1999/xlink" x="0px" y="0px"
	 width="144px" height="98px" viewBox="0 0 144 98" enable-background="new 0 0 144 98" xml:space="preserve">
<g>
	<path fill-rule="evenodd" clip-rule="evenodd" fill="#2A3052" d="M52.3,0c-8.2,0-16.3-0.1-24.5,0C11.5,0.2,0.1,11.6,0,27.7
		c0,5.7,0,11.3,0,17c0.1,15.1,8.8,25.6,23.6,28.2c5.7,1,5.9,1.6,2.1,6.2c-0.5,0.6-1.1,1.2-1.6,1.9c-1.3,1.6-3.7,3-2.5,5.5
		c1.3,2.7,3.8,2.1,6.2,1.8c9.6-1.2,17.8-5.3,24.8-11.8c2.8-2.6,5.8-3.5,9.5-3.4c5.5,0.2,11,0.1,16.5,0c15.2-0.4,26.3-11.5,26.6-26.6
		c0.1-6.7,0.1-13.3,0-20c-0.3-14.8-11.4-26-26.4-26.3C69.9-0.1,61.1,0.1,52.3,0C52.3,0.1,52.3,0.1,52.3,0z"/>
	<path fill-rule="evenodd" clip-rule="evenodd" fill="#2A3052" d="M118.4,92.3c-6.4-1.3-10.8-4.1-14.5-7.9c-2.4-2.5-5-3.5-8.4-3.4
		c-4.5,0.2-9,0-13.5,0.1c-4.1,0.1-7.9-0.9-11.4-3.1c-1.9-1.2-4.6-2.8-5.7-0.9c-1.2,2.1,1.9,3.4,3.5,4.5c3.2,2.1,6.8,3.5,10.8,3.5
		c2.3,0,4.7,0.2,7,0c7.2-0.6,13.6,0.4,19.2,5.9c4.3,4.2,10.4,5.8,16.4,6.7c1.6,0.3,3.5,0.5,4.5-1.3c1.1-1.9-0.4-3.1-1.5-4.3
		c-0.7-0.9-1.6-1.7-2.3-2.6c-2-2.6-1.7-3.9,1.9-4.5c13.2-2.2,19.6-9.9,19.6-23.4c0-4,0-8,0-12c-0.1-13-7.1-21.4-19.9-23.3
		c-3.8-0.6-7.6-0.3-11.5-0.3c-1.5,0-3.3,0.3-3.2,2.3c0.1,1.9,1.8,2.2,3.3,2.3c3,0.1,6,0.1,9,0.2c10.5,0.3,17.2,6.6,17.9,17
		c0.4,6,0.3,12-0.3,17.9c-0.8,8.2-6.9,13.8-15,15.2c-2.9,0.5-6.9-1.6-8.5,2.1C114.6,85.8,117,88.7,118.4,92.3z"/>
</g>
</svg>
