<?xml version="1.0" encoding="utf-8"?>
<!-- Generator: Adobe Illustrator 16.0.0, SVG Export Plug-In . SVG Version: 6.00 Build 0)  -->
<!DOCTYPE svg PUBLIC "-//W3C//DTD SVG 1.1//EN" "http://www.w3.org/Graphics/SVG/1.1/DTD/svg11.dtd">
<svg version="1.1" id="Layer_1" xmlns="http://www.w3.org/2000/svg" xmlns:xlink="http://www.w3.org/1999/xlink" x="0px" y="0px"
	 width="161px" height="116px" viewBox="-8 -7 161 116" enable-background="new -8 -7 161 116" xml:space="preserve">
<g>
	<path fill-rule="evenodd" clip-rule="evenodd" fill="#FFFFFF" d="M149.623,38.161c0,12.575,0,25.148,0,37.723
		c-0.43,0.217-1.22,0.41-1.235,0.653c-0.434,6.481-4.209,9.34-10.245,9.864c-2.788,0.242-5.579,0.874-8.352,0.786
		c-3.746-0.118-5.022,1.777-5.161,5.128c-0.188,4.582-0.402,9.164-0.607,13.747c-0.71,0-1.422,0-2.133,0
		c-2.019-2.323-3.741-5.024-6.104-6.905C103.328,89.238,88.228,88.7,73.517,88.63c-9.332-0.043-15.458-7.612-15.214-15.949
		c0.278-9.494,0.061-19.002,0.065-28.505c0.004-12.064,5.733-18.284,17.642-18.411c18.451-0.197,36.909-0.24,55.357,0.038
		c7.68,0.115,14.037,3.172,16.823,11.26C148.356,37.539,149.131,37.8,149.623,38.161z"/>
</g>
<path fill="#2A3052" d="M53.638-3.947c-9.507,0-18.898-0.119-28.405,0C6.333-3.71-6.884,9.755-7,28.771c0,6.731,0,13.346,0,20.079
	c0.116,17.834,10.203,30.235,27.362,33.31c6.608,1.181,6.84,1.888,2.435,7.321c-0.579,0.709-1.276,1.415-1.855,2.244
	c-1.507,1.891-4.29,3.544-2.898,6.495c1.508,3.19,4.406,2.483,7.188,2.127c11.13-1.417,20.638-6.261,28.754-13.939
	c3.246-3.069,6.725-4.133,11.015-4.016c6.378,0.237,12.753,0.116,19.13,0c17.623-0.474,30.494-13.585,30.842-31.418
	c0.115-7.914,0.115-15.708,0-23.623c-0.35-17.479-13.22-30.709-30.61-31.063C74.043-4.065,63.841-3.829,53.638-3.947
	C53.638-3.829,53.638-3.829,53.638-3.947z"/>
<path fill="#2A3052" d="M147.552,68.813c-0.93,9.685-8.002,16.299-17.393,17.953c-3.361,0.591-8.002-1.891-9.854,2.481
	c-1.392,3.306,1.391,6.731,3.014,10.982c-7.42-1.535-12.521-4.842-16.811-9.33c-2.783-2.951-5.797-4.134-9.74-4.016
	c-5.218,0.236-10.434,0-15.65,0.116c-4.755,0.118-9.161-1.063-13.221-3.66c-2.202-1.416-5.333-3.307-6.608-1.063
	c-1.391,2.482,2.203,4.017,4.059,5.315c3.711,2.483,7.885,4.135,12.521,4.135c2.665,0,5.447,0.237,8.115,0
	c8.347-0.707,15.768,0.472,22.26,6.97c4.987,4.961,12.059,6.85,19.015,7.915c1.854,0.354,4.059,0.591,5.219-1.536
	c1.274-2.244-0.466-3.661-1.74-5.08c-0.812-1.062-1.854-2.007-2.666-3.071c-2.32-3.071-1.972-4.606,2.202-5.315
	C145.579,89.009,153,79.913,153,63.971c0-4.727,0-9.452,0-14.174c-0.114-15.355-8.23-25.276-23.072-27.521
	c-4.405-0.708-8.813-0.354-13.334-0.354c-1.739,0-3.825,0.354-3.711,2.717c0.115,2.245,2.088,2.599,3.828,2.717
	c3.479,0.119,6.955,0.119,10.435,0.236c12.172,0.354,19.939,7.795,20.751,20.079"/>
</svg>
