<?xml version="1.0" encoding="utf-8"?>
<!-- Generator: Adobe Illustrator 16.0.0, SVG Export Plug-In . SVG Version: 6.00 Build 0)  -->
<!DOCTYPE svg PUBLIC "-//W3C//DTD SVG 1.1//EN" "http://www.w3.org/Graphics/SVG/1.1/DTD/svg11.dtd">
<svg version="1.1" id="Layer_1" xmlns="http://www.w3.org/2000/svg" xmlns:xlink="http://www.w3.org/1999/xlink" x="0px" y="0px"
	 width="359px" height="359px" viewBox="-96 -110.5 359 359" enable-background="new -96 -110.5 359 359" xml:space="preserve">
<path fill="#FFFFFF" stroke="#2A3052" stroke-width="2" stroke-miterlimit="10" d="M146.641,23.49
	c-19.072,0.234-38.146-0.229-57.44,0.463c-32.506,0.694-56.565,26.651-57.22,60.942c-0.215,15.532-0.215,30.818,0,46.35
	c0.65,34.983,24.71,60.71,57.659,61.637c11.919,0.228,23.836,0.464,35.76,0c8.018-0.23,14.524,1.856,20.591,7.879
	c15.172,15.062,32.948,24.567,53.753,27.348c5.202,0.697,10.624,2.086,13.439-4.172c2.601-5.794-2.604-9.035-5.418-12.746
	c-1.083-1.624-2.388-3.012-3.472-4.402c-8.231-10.657-7.8-12.048,4.555-14.36c32.076-6.032,50.936-30.363,51.152-65.354
	c0-13.21,0-26.185,0-39.391c-0.217-37.308-24.927-63.727-60.261-64.193C181.97,23.259,164.413,23.49,146.641,23.49
	C146.641,23.724,146.641,23.724,146.641,23.49z"/>
<path fill="#2A3052" d="M48.644-74.771c-22.367,0-44.457-0.287-66.821,0C-62.637-74.198-93.728-41.667-94,4.277
	c0,16.261,0,32.244,0,48.508c0.272,43.089,24.002,73.049,64.364,80.479c15.546,2.853,16.089,4.561,5.729,17.686
	c-1.364,1.712-3.001,3.422-4.364,5.421c-3.543,4.571-10.092,8.564-6.817,15.696c3.547,7.705,10.365,5.996,16.91,5.141
	c26.181-3.427,48.547-15.132,67.639-33.68c7.637-7.416,15.82-9.984,25.911-9.702c15.004,0.57,30.002,0.278,45.004,0
	c41.453-1.145,71.731-32.824,72.546-75.906c0.271-19.121,0.271-37.952,0-57.075c-0.82-42.229-31.093-74.192-72.002-75.049
	C96.644-75.057,72.643-74.487,48.644-74.771C48.644-74.487,48.644-74.487,48.644-74.771z"/>
</svg>
