<?xml version="1.0" encoding="utf-8"?>
<!-- Generator: Adobe Illustrator 16.0.0, SVG Export Plug-In . SVG Version: 6.00 Build 0)  -->
<!DOCTYPE svg PUBLIC "-//W3C//DTD SVG 1.1//EN" "http://www.w3.org/Graphics/SVG/1.1/DTD/svg11.dtd">
<svg version="1.1" xmlns="http://www.w3.org/2000/svg" xmlns:xlink="http://www.w3.org/1999/xlink" x="0px" y="0px" width="436px"
	 height="378.2px" viewBox="0 0 436 378.2" enable-background="new 0 0 436 378.2" xml:space="preserve">
<g id="Layer_4">
</g>
<g id="Layer_2" display="none">
	<path display="inline" fill="#231F20" stroke="#666666" stroke-width="6" stroke-miterlimit="10" d="M385,347.7
		c0,6.3-4,11.3-8.9,11.3H55.6c-4.9,0-8.9-5.1-8.9-11.3V41.6c0-6.3,4-11.3,8.9-11.3h320.5c4.9,0,8.9,5.1,8.9,11.3V347.7z"/>
</g>
<g id="Layer_3">
	<ellipse fill="#3E3C37" cx="215.2" cy="188.9" rx="220" ry="202"/>
	<ellipse fill="none" stroke="#FFFFFF" stroke-width="14" stroke-miterlimit="10" cx="213.1" cy="189" rx="191.9" ry="177"/>
</g>
<g id="Layer_1">
	<path fill="#FDB914" d="M94.3,116.6c9.8,18.4,26.6,26.6,44.5,33c29.1,10.4,59.3,12.9,89.9,11.3c25.3-1.3,49.8-5.9,72.9-16.9
		c12.1-5.8,23-13.3,30.4-25.8c0,7.1-0.8,14.4,0.2,21.3c2.6,19.5-7.7,31.2-22.8,40.3c-16.8,10.2-35.4,15.2-54.5,18.3
		c-35.4,5.8-70.5,4.5-105.1-5c-13.7-3.8-26.9-8.9-38.4-17.5c-11.2-8.4-18-18.7-17.2-33.5C94.8,133.7,94.3,125.1,94.3,116.6z"/>
	<path fill="#FDB914" d="M331.8,155.2c0,13,0.9,25-0.4,36.7c-0.6,5.4-4.8,11-8.7,15.3c-9.8,10.8-22.7,16.8-36.4,21.1
		c-50,15.6-99.9,15.5-149.5-1.4c-11.8-4-22.7-9.9-31.8-18.8c-6.3-6.2-10.5-13.3-10.4-22.5c0.2-10.3,0-20.6,0-30.1
		c3.8,4.5,7.7,10.1,12.6,14.6c10.3,9.6,23.1,15.1,36.4,19c50.2,14.7,100.1,14.4,149.5-3.5C308.8,180,322.6,171.3,331.8,155.2z"/>
	<path fill="#FDB914" d="M95.3,230.6c8.3,16.2,22.1,24.5,37.3,30.9c30.6,12.9,62.6,16,95.3,14.6c20.8-0.9,41.2-4.4,60.8-11.6
		c17.5-6.4,34-14.5,44.2-33.4c0,13.4,1.1,25.6-0.5,37.5c-0.8,6-5.4,12.3-9.8,16.9c-11.5,12-26.3,18.4-41.8,22.7
		c-46.9,12.9-93.7,12.7-140.1-2.5c-11.5-3.8-22.2-9.5-31.6-17.5c-9.1-7.8-14.2-17.4-13.8-29.9C95.6,249.1,95.3,239.9,95.3,230.6z"/>
	<path fill="#FDB914" d="M332.3,193.5c0,13,0.9,25-0.4,36.7c-0.6,5.4-4.8,11-8.7,15.3c-9.8,10.8-22.7,16.8-36.4,21.1
		c-50,15.6-99.9,15.5-149.5-1.4c-11.8-4-22.7-9.9-31.8-18.8c-6.3-6.2-10.5-13.3-10.4-22.5c0.2-10.3,0-20.6,0-30.1
		c3.8,4.5,7.7,10.1,12.6,14.6c10.3,9.6,23.1,15.1,36.4,19c50.2,14.7,100.1,14.4,149.5-3.5C309.3,218.3,323.1,209.7,332.3,193.5z"/>
	<g>
		<path fill="#FFFFFF" stroke="#FFFFFF" stroke-miterlimit="10" d="M159.7,230.5c9.2-0.3,10.2-5.1,10.2-9.2c0-3.4-0.4-6.9-0.8-10.5
			c-0.4-3.6-0.7-7.3-0.7-10.6c0-12.7,7.9-18.2,20.3-18.2h4.7v11.5H191c-6,0-8.2,3.6-8.2,9.6c0,2.4,0.4,4.8,0.7,7.7
			c0.3,2.7,0.7,5.8,0.7,9.2c0.1,10.2-4,14-11.4,15.6v0.3c7.4,1.6,11.5,5.5,11.4,15.8c0,3.5-0.4,6.6-0.7,9.4
			c-0.3,2.7-0.7,5.3-0.7,7.5c0,5.9,2,9.7,8.2,9.7h2.4v11.3h-4.8c-11.9,0-20.2-4.8-20.2-18.3c0-3.4,0.3-7,0.7-10.6
			c0.4-3.6,0.8-7.1,0.8-10.5c0-3.8-0.9-8.9-10.2-9.2V230.5z"/>
		<path fill="#FFFFFF" stroke="#FFFFFF" stroke-miterlimit="10" d="M262.7,240.9c-9.1,0.3-10.2,5.4-10.2,9.2c0,3.4,0.4,6.9,0.8,10.5
			c0.4,3.6,0.8,7.3,0.8,10.6c0,13.5-8.3,18.3-20.3,18.3H229v-11.3h2.4c6.2-0.1,8.2-3.8,8.2-9.7c0-2.3-0.3-4.8-0.7-7.5
			c-0.3-2.8-0.7-5.9-0.7-9.4c-0.1-10.2,4-14.1,11.5-15.8v-0.3c-7.5-1.6-11.6-5.4-11.5-15.6c0-3.4,0.4-6.5,0.7-9.2
			c0.4-2.8,0.7-5.3,0.7-7.7c0-5.9-2.1-9.4-8.2-9.6H229V182h4.7c12.6,0,20.5,5.5,20.5,18.2c0,3.4-0.4,7-0.8,10.6
			c-0.4,3.6-0.8,7.1-0.8,10.5c0,4,1.1,8.9,10.2,9.2V240.9z"/>
	</g>
	<line fill="#FDB914" stroke="#FFFFFF" stroke-width="6" stroke-miterlimit="10" x1="95.4" y1="114.5" x2="96.3" y2="279.3"/>
	<line fill="#FDB914" stroke="#FFFFFF" stroke-width="6" stroke-miterlimit="10" x1="331.2" y1="115.5" x2="332.1" y2="280.3"/>
	<path fill="#FDB914" stroke="#FFFFFF" stroke-width="6" stroke-miterlimit="10" d="M96.3,273.9c0,24.7,52.6,44.6,117.5,44.6"/>
	<path fill="#FDB914" stroke="#FFFFFF" stroke-width="6" stroke-miterlimit="10" d="M332.1,275c0,24.1-52.9,43.5-118.3,43.5"/>
	<path fill="#FDB914" stroke="#FFFFFF" stroke-width="6" stroke-miterlimit="10" d="M210.4,159.1c-26.8,0.1-55.6-3-82.5-13.5
		c-8.7-3.4-17-8-24-13.5c-12.8-10.1-12.4-22.5-0.4-33.2c9.5-8.4,21.5-13.3,34.3-17.1c20.6-6.2,42-9.3,63.9-9.8
		c26.6-0.5,53.1,0.6,78.7,7.2c13.3,3.4,26,7.8,37,15c8.7,5.8,15.4,12.4,14.7,22.7c-0.5,6.4-4.1,11.2-9,15.5
		c-8.3,7.3-18.8,12-29.9,15.6C267.4,156.4,240.5,159.3,210.4,159.1z"/>
</g>
</svg>
