<?xml version="1.0" encoding="utf-8"?>
<!-- Generator: Adobe Illustrator 16.0.0, SVG Export Plug-In . SVG Version: 6.00 Build 0)  -->
<!DOCTYPE svg PUBLIC "-//W3C//DTD SVG 1.1//EN" "http://www.w3.org/Graphics/SVG/1.1/DTD/svg11.dtd">
<svg version="1.1" id="Layer_1" xmlns="http://www.w3.org/2000/svg" xmlns:xlink="http://www.w3.org/1999/xlink" x="0px" y="0px"
	 width="292px" height="271px" viewBox="0 0 292 271" enable-background="new 0 0 292 271" xml:space="preserve">
<path fill-rule="evenodd" clip-rule="evenodd" fill="none" stroke="#3D4766" stroke-width="16" d="M185.746,48.477
	c15.566,0,30.391,0,45.765,0c0,9.477,0,17.999,0,27.187c-11.559-0.458-11.507,5.789-11.456,13.079
	c0.293,41.265,0.15,82.531,0.156,123.796c0,3.603,0,7.206,0,11.601c-50.37,0-100.059,0-151.272,0c0-3.269,0-6.489,0-9.71
	c0.012-42.101-0.11-84.204,0.165-126.305c0.047-7.055-0.155-12.917-11.604-12.252c0-9.094,0-17.632,0-27.354
	c11.715,0,122.522-0.786,134-0.171"/>
<line fill="none" stroke="#3D4766" stroke-width="16" x1="117.5" y1="91" x2="117.5" y2="186"/>
<line fill="none" stroke="#3D4766" stroke-width="16" x1="171.5" y1="91" x2="171.5" y2="186"/>
<line fill="none" stroke="#3D4766" stroke-width="16" x1="111.5" y1="33" x2="174.5" y2="33"/>
</svg>
