<?xml version="1.0" encoding="utf-8"?>
<!-- Generator: Adobe Illustrator 16.0.0, SVG Export Plug-In . SVG Version: 6.00 Build 0)  -->
<!DOCTYPE svg PUBLIC "-//W3C//DTD SVG 1.1//EN" "http://www.w3.org/Graphics/SVG/1.1/DTD/svg11.dtd">
<svg version="1.1" id="Layer_1" xmlns="http://www.w3.org/2000/svg" xmlns:xlink="http://www.w3.org/1999/xlink" x="0px" y="0px"
	 width="256px" height="256px" viewBox="0 0 256 256" enable-background="new 0 0 256 256" xml:space="preserve">
<g>
	<g>
		<path fill="none" stroke="#EA8B18" stroke-width="5" stroke-miterlimit="10" d="M126.5,100.5c28.4,0.2,53.7-3.1,77.9-12.6
			c10.5-4.1,20.3-9.3,28.199-17.6c4.601-4.9,8-10.4,8.5-17.6c0.7-11.6-5.6-19.1-13.8-25.7C217,18.8,205,13.9,192.5,10
			c-24.2-7.5-49.1-8.7-74.1-8.1C97.8,2.4,77.7,6,58.3,12.9c-12,4.3-23.4,9.9-32.3,19.4C14.6,44.5,14.3,58.6,26.3,70
			c6.5,6.2,14.4,11.5,22.6,15.3C74.2,97.1,101.3,100.7,126.5,100.5z M17.3,73.2c0,8,0.4,16-0.1,23.9c-0.8,13.8,5.7,23.5,16.2,31.3
			c10.9,8.1,23.3,12.9,36.2,16.4c32.6,8.9,65.7,10.101,99,4.7c18-2.9,35.5-7.6,51.301-17.1c14.1-8.5,23.899-19.5,21.399-37.7
			c-0.899-6.5-0.1-13.3-0.1-20C234.3,86.4,224,93.4,212.6,98.8C190.9,109,167.8,113.4,144,114.6c-28.8,1.5-57.3-0.8-84.7-10.6
			C42.3,98.1,26.5,90.4,17.3,73.2z M240.9,125.7c-8.601,15.1-21.601,23.2-36.4,28.5C158,171,111,171.3,63.8,157.5
			c-12.5-3.7-24.5-8.8-34.3-17.8c-4.6-4.2-8.2-9.5-11.8-13.7c0,8.9,0.1,18.5,0,28.2c-0.2,8.7,3.8,15.3,9.7,21.1
			c8.5,8.3,18.8,13.8,29.9,17.601c46.7,15.8,93.7,15.899,140.8,1.3c12.801-4,25-9.601,34.2-19.7c3.7-4,7.601-9.3,8.2-14.4
			C241.7,149.1,240.9,137.9,240.9,125.7z M17.3,177.1c0,8.4,0.2,16.9-0.1,25.301c-0.4,11.5,4.4,20.199,13,27.3
			c8.8,7.3,18.9,12.5,29.7,16c43.7,13.899,87.8,14.1,131.9,2.3c14.601-3.9,28.5-9.8,39.3-20.7c4.2-4.2,8.5-9.899,9.301-15.399
			C241.8,201,240.8,189.8,240.8,177.6c-9.6,17.2-25.1,24.7-41.6,30.5C180.7,214.6,161.6,217.9,142,218.7
			c-30.8,1.3-60.9-1.601-89.7-13.4C38.1,199.5,25.1,192,17.3,177.1z"/>
		<path fill="none" stroke="#EA8B18" stroke-width="5" stroke-miterlimit="10" d="M126.5,100.5c-25.2,0.2-52.4-3.4-77.7-15.3
			c-8.1-3.8-16-9.1-22.6-15.3c-12-11.4-11.7-25.5-0.3-37.6c8.9-9.5,20.3-15,32.3-19.4c19.4-7,39.5-10.5,60.1-11
			c25.101-0.6,50,0.6,74.101,8.1c12.5,3.9,24.5,8.8,34.8,17c8.2,6.5,14.5,14.1,13.8,25.7c-0.4,7.2-3.8,12.7-8.5,17.6
			c-7.8,8.3-17.7,13.5-28.2,17.6C180.2,97.4,155,100.7,126.5,100.5z"/>
		<path fill="none" stroke="#EA8B18" stroke-width="5" stroke-miterlimit="10" d="M17.3,73.2c9.2,17.2,25.1,24.9,41.9,30.9
			c27.4,9.8,55.8,12,84.7,10.6c23.8-1.2,46.899-5.6,68.6-15.8c11.4-5.4,21.7-12.4,28.6-24.1c0,6.7-0.699,13.4,0.101,20
			c2.5,18.3-7.3,29.2-21.4,37.7c-15.8,9.5-33.3,14.2-51.3,17.1c-33.3,5.4-66.3,4.301-99-4.699c-12.9-3.5-25.3-8.301-36.2-16.4
			c-10.5-7.8-17-17.5-16.2-31.3C17.7,89.2,17.3,81.2,17.3,73.2z"/>
		<path fill="none" stroke="#EA8B18" stroke-width="5" stroke-miterlimit="10" d="M240.9,125.7c0,12.2,0.899,23.399-0.4,34.3
			c-0.6,5.1-4.5,10.3-8.2,14.4c-9.2,10.1-21.399,15.699-34.2,19.699c-47,14.601-94,14.5-140.8-1.3c-11.1-3.8-21.4-9.3-29.9-17.6
			c-5.9-5.8-9.9-12.4-9.7-21.101c0.2-9.699,0-19.3,0-28.2c3.6,4.2,7.3,9.4,11.8,13.7c9.7,9,21.7,14.2,34.3,17.801
			C111,171.2,158,170.8,204.5,154.1C219.3,148.9,232.3,140.8,240.9,125.7z"/>
		<path fill="none" stroke="#EA8B18" stroke-width="5" stroke-miterlimit="10" d="M17.3,177.1c7.8,14.801,20.8,22.4,35.1,28.2
			c28.8,11.7,58.9,14.7,89.7,13.4c19.601-0.8,38.7-4.101,57.2-10.601c16.5-5.8,32-13.3,41.601-30.5c0,12.2,1,23.4-0.4,34.301
			c-0.7,5.5-5.1,11.199-9.3,15.399c-10.8,11-24.7,16.8-39.3,20.7c-44.101,11.8-88.2,11.6-131.9-2.3c-10.9-3.5-20.9-8.601-29.7-16
			c-8.6-7.101-13.4-15.9-13-27.3C17.5,194,17.3,185.6,17.3,177.1z"/>
	</g>
</g>
</svg>
