<?xml version="1.0" encoding="utf-8"?>
<!-- Generator: Adobe Illustrator 16.0.0, SVG Export Plug-In . SVG Version: 6.00 Build 0)  -->
<!DOCTYPE svg PUBLIC "-//W3C//DTD SVG 1.1//EN" "http://www.w3.org/Graphics/SVG/1.1/DTD/svg11.dtd">
<svg version="1.1" id="Layer_1" xmlns="http://www.w3.org/2000/svg" xmlns:xlink="http://www.w3.org/1999/xlink" x="0px" y="0px"
	 width="256px" height="256px" viewBox="0 0 256 256" enable-background="new 0 0 256 256" xml:space="preserve">
<g>
	<g>
		<path fill="none" stroke="#EA8B18" stroke-width="14" stroke-miterlimit="10" d="M125.697,102.725
			c27.073,0.187,51.189-2.896,74.259-11.771c10.009-3.831,19.35-8.688,26.879-16.442c4.387-4.577,7.628-9.715,8.104-16.441
			c0.666-10.837-5.338-17.843-13.154-24.009c-9.819-7.661-21.258-12.238-33.174-15.881c-23.068-7.007-46.804-8.128-70.635-7.567
			C98.34,11.082,79.18,14.445,60.687,20.89c-11.438,4.018-22.306,9.249-30.79,18.123C19.03,50.411,18.744,63.583,30.183,74.232
			c6.196,5.792,13.727,10.743,21.543,14.293C75.843,99.548,101.675,102.912,125.697,102.725z M21.604,77.222
			c0,7.474,0.381,14.947-0.095,22.327c-0.763,12.892,5.433,21.954,15.442,29.24c10.39,7.567,22.211,12.051,34.507,15.321
			c31.076,8.314,62.628,9.436,94.371,4.391c17.158-2.709,33.84-7.1,48.902-15.974c13.439-7.941,22.781-18.218,20.397-35.22
			c-0.856-6.072-0.094-12.424-0.094-18.684c-6.579,10.93-16.396,17.469-27.264,22.514c-20.685,9.529-42.705,13.639-65.392,14.761
			c-27.454,1.401-54.621-0.748-80.74-9.903C45.434,100.483,30.374,93.29,21.604,77.222z M234.749,126.267
			c-8.199,14.105-20.592,21.673-34.699,26.625c-44.325,15.693-89.127,15.974-134.121,3.082
			c-11.916-3.456-23.354-8.221-32.696-16.629c-4.385-3.923-7.817-8.875-11.248-12.798c0,8.314,0.095,17.282,0,26.345
			c-0.191,8.127,3.622,14.292,9.246,19.71c8.103,7.754,17.921,12.892,28.502,16.442c44.517,14.76,89.318,14.854,134.215,1.214
			c12.203-3.736,23.832-8.968,32.602-18.404c3.527-3.736,7.246-8.688,7.816-13.452C235.512,148.126,234.749,137.664,234.749,126.267
			z M21.604,174.282c0,7.849,0.19,15.789-0.095,23.637c-0.382,10.743,4.194,18.869,12.392,25.503
			c8.388,6.819,18.016,11.678,28.311,14.947c41.657,12.983,83.694,13.172,125.732,2.147c13.918-3.643,27.167-9.154,37.461-19.337
			c4.005-3.924,8.104-9.249,8.867-14.387c1.333-10.184,0.38-20.646,0.38-32.043c-9.15,16.068-23.925,23.075-39.654,28.493
			c-17.635,6.071-35.843,9.154-54.525,9.902c-29.359,1.215-58.052-1.494-85.505-12.519C41.431,195.209,29.04,188.203,21.604,174.282
			z"/>
		<path fill="none" stroke="#EA8B18" stroke-width="14" stroke-miterlimit="10" d="M125.697,102.725
			c-24.022,0.187-49.95-3.177-74.067-14.293c-7.721-3.55-15.251-8.501-21.543-14.293c-11.438-10.649-11.152-23.822-0.286-35.125
			C38.285,30.139,49.153,25,60.592,20.89c18.493-6.54,37.653-9.809,57.289-10.276c23.927-0.561,47.662,0.561,70.636,7.567
			c11.916,3.643,23.354,8.22,33.172,15.881c7.817,6.072,13.823,13.172,13.155,24.009c-0.381,6.726-3.622,11.864-8.103,16.441
			c-7.436,7.754-16.872,12.611-26.882,16.442C176.887,99.829,152.865,102.912,125.697,102.725z"/>
		<path fill="none" stroke="#EA8B18" stroke-width="14" stroke-miterlimit="10" d="M21.604,77.222
			c8.77,16.068,23.926,23.261,39.941,28.866c26.119,9.155,53.19,11.21,80.739,9.903c22.687-1.122,44.707-5.232,65.393-14.761
			c10.867-5.044,20.686-11.583,27.263-22.514c0,6.259-0.667,12.518,0.096,18.684c2.383,17.096-6.959,27.279-20.4,35.218
			c-15.062,8.875-31.743,13.266-48.901,15.975c-31.742,5.045-63.199,4.018-94.371-4.39c-12.297-3.27-24.117-7.755-34.507-15.321
			c-10.009-7.286-16.205-16.348-15.442-29.24C21.985,92.169,21.604,84.695,21.604,77.222z"/>
		<path fill="none" stroke="#EA8B18" stroke-width="14" stroke-miterlimit="10" d="M234.749,126.267
			c0,11.397,0.856,21.859-0.383,32.042c-0.57,4.765-4.289,9.622-7.816,13.453c-8.77,9.435-20.398,14.665-32.602,18.403
			c-44.802,13.639-89.603,13.544-134.215-1.216c-10.581-3.549-20.399-8.688-28.502-16.44c-5.624-5.418-9.437-11.584-9.246-19.713
			c0.19-9.061,0-18.028,0-26.343c3.431,3.923,6.958,8.781,11.248,12.798c9.246,8.408,20.686,13.267,32.696,16.629
			c44.993,12.892,89.795,12.519,134.121-3.084C214.157,147.939,226.55,140.372,234.749,126.267z"/>
		<path fill="none" stroke="#EA8B18" stroke-width="14" stroke-miterlimit="10" d="M21.604,174.282
			c7.436,13.827,19.827,20.927,33.458,26.345c27.454,10.931,56.146,13.733,85.506,12.519c18.684-0.748,36.891-3.831,54.525-9.902
			c15.729-5.418,30.503-12.425,39.655-28.493c0,11.397,0.953,21.859-0.383,32.043c-0.666,5.138-4.86,10.463-8.864,14.387
			c-10.295,10.275-23.545,15.694-37.462,19.337c-42.039,11.024-84.076,10.836-125.733-2.147c-10.39-3.27-19.922-8.035-28.312-14.947
			c-8.197-6.634-12.772-14.854-12.391-25.503C21.794,190.071,21.604,182.223,21.604,174.282z"/>
	</g>
</g>
</svg>
